<svg width="703" height="1024" viewBox="0 0 703 1024" fill="none" xmlns="http://www.w3.org/2000/svg">
<path d="M450.599 924.098C483.012 951.737 580.675 1010.41 712.023 1024L713 0L624.12 57.0912C553.174 102.663 466.808 117.59 384.681 98.4767C294.639 77.5207 201.237 116.143 152.29 194.571L129.071 231.774L19.4851 399.293C-27.0707 470.461 18.7083 565.611 103.37 573.648L329.612 595.123C398.805 601.691 444.207 670.538 422.994 736.726L406.183 789.177C401.292 804.438 398.802 820.365 398.802 836.39C398.802 869.085 414.931 899.676 441.908 918.147L450.599 924.098Z" fill="url(#paint0_linear)"/>
<defs>
<linearGradient id="paint0_linear" x1="315" y1="1024" x2="315" y2="0" gradientUnits="userSpaceOnUse">
<stop stop-color="#FFBA69"/>
<stop offset="1" stop-color="#D518AB"/>
</linearGradient>
</defs>
</svg>
