<svg width="195" height="38" viewBox="0 0 195 38" fill="none" xmlns="http://www.w3.org/2000/svg">
<path d="M42.5724 18.4943L42.5567 14.262L35.6673 14.2874C35.6529 14.4849 35.6332 14.6918 35.6091 14.8913C35.5797 15.2241 35.5357 15.5569 35.4814 15.8848C35.4568 16.069 35.4272 16.2483 35.3924 16.4281C35.3675 16.5461 35.348 16.6637 35.3231 16.7817C35.2835 17.002 35.2337 17.2224 35.1795 17.4422C35.0162 18.152 34.8132 18.8518 34.5716 19.5382C34.482 19.7942 34.3871 20.0504 34.2868 20.3068C34.2217 20.4709 34.1517 20.635 34.0817 20.8011C33.7968 21.4729 33.4757 22.1284 33.1199 22.7646L33.2007 22.7643C32.888 23.3636 32.5092 23.9248 32.0714 24.4373C32.0714 24.4422 32.0661 24.4477 32.0612 24.4526C31.7451 24.9094 31.4085 25.3509 31.0567 25.7821C30.7098 26.2029 30.3482 26.609 29.9661 26.9993C29.775 27.1975 29.5782 27.3956 29.3773 27.5795C29.3719 27.5904 29.3632 27.5994 29.3526 27.6052C29.1586 27.7906 28.9699 27.965 28.7705 28.1345C28.3577 28.5048 27.935 28.8494 27.4923 29.1758C27.2608 29.3509 27.0239 29.5156 26.7821 29.6799C26.5962 29.8089 26.4146 29.928 26.2232 30.0457C26.2184 30.0507 26.2135 30.0507 26.2082 30.0556C26.0269 30.1744 25.8406 30.2878 25.6492 30.3958C25.1606 30.6789 24.6569 30.9468 24.1433 31.1911C23.9266 31.2941 23.7099 31.3975 23.4879 31.4897C23.0447 31.6808 22.5961 31.8567 22.1425 32.0119C21.9812 32.0688 21.8198 32.1202 21.6564 32.1721C21.3341 32.276 21.0064 32.372 20.6782 32.4571C20.5625 32.4886 20.4414 32.5197 20.3256 32.5458C20.1088 32.6028 19.8967 32.6495 19.6798 32.6962C19.443 32.7435 19.2056 32.7903 18.9687 32.8272C18.7066 32.874 18.439 32.916 18.1768 32.9476C17.955 32.979 17.7389 32.9985 17.521 33.0216C17.43 33.0323 17.3443 33.038 17.2533 33.0433C17.205 33.0512 17.1563 33.0565 17.1074 33.0591C16.9862 33.0699 16.8641 33.0753 16.7439 33.0812C16.4159 33.1028 16.0829 33.1142 15.7448 33.1155C17.6975 34.4399 19.8967 35.3452 22.2072 35.7759C24.5176 36.2065 26.8904 36.1533 29.1798 35.6196C29.1895 35.6146 29.2046 35.6146 29.2148 35.6096C32.3201 34.8741 35.1645 33.2824 37.4336 31.0104C39.7027 28.7384 41.3084 25.8744 42.0731 22.735C42.4125 21.348 42.5802 19.9234 42.5724 18.4943Z" fill="url(#paint0_linear)"/>
<path d="M35.6672 14.2874L27.1984 14.3187C26.6465 14.3147 26.0992 14.4217 25.5884 14.6336C25.0776 14.8455 24.6133 15.158 24.2223 15.5531C23.8314 15.9482 23.5216 16.418 23.3109 16.9353C23.1003 17.4526 22.9928 18.0072 22.9949 18.5669C22.997 19.1266 23.1085 19.6804 23.323 20.1961C23.5375 20.7118 23.8507 21.1793 24.2446 21.5715C24.6384 21.9637 25.105 22.2728 25.6174 22.4809C26.1298 22.689 26.6778 22.792 27.2297 22.7839L33.1189 22.7621C34.5735 20.1621 35.4437 17.2682 35.6672 14.2874Z" fill="url(#paint1_linear)"/>
<path d="M32.0608 24.4502C31.2301 25.4318 30.2007 26.2204 29.0426 26.7625C27.8845 27.3047 26.6248 27.5876 25.3493 27.592C24.758 27.5939 24.1679 27.5379 23.5872 27.4248C23.011 27.3069 22.4475 27.1325 21.9047 26.9038C20.304 26.2261 18.932 25.0915 17.9555 23.6377C17.9506 23.6377 17.9506 23.6377 17.9506 23.6322C17.7327 23.3976 17.5196 23.1531 17.3152 22.9026C17.3147 22.8987 17.3128 22.8952 17.3098 22.8927C15.3877 20.56 14.0564 17.7866 13.4318 14.8135C12.8072 11.8403 12.9081 8.75764 13.7258 5.83324C13.7454 5.73445 13.7737 5.63558 13.8055 5.53675C10.5185 8.5189 8.48463 12.6658 8.1227 17.1235C7.76078 21.5811 9.0984 26.0099 11.86 29.4977C12.9677 30.8945 14.2775 32.1133 15.7448 33.1126C19.9718 33.0892 24.0831 31.7105 27.4904 29.1739C29.2538 27.858 30.7969 26.2631 32.0608 24.4502Z" fill="url(#paint2_linear)"/>
<path d="M42.0838 1.00159L34.2759 1.03045C34.2759 1.03114 34.2758 1.03184 34.2755 1.03248C34.2752 1.03312 34.2749 1.03366 34.2743 1.03416C34.2738 1.03461 34.2733 1.03501 34.2726 1.03521C34.2719 1.03541 34.2713 1.03551 34.2706 1.03541L34.2706 1.04084C34.1854 1.17393 34.1051 1.30754 34.0146 1.4367C33.8211 1.74985 33.6134 2.05268 33.4023 2.3501C32.8707 3.09599 32.2917 3.80591 31.6691 4.47538C31.5533 4.60365 31.4325 4.73247 31.3118 4.86075C31.2919 4.88106 31.2667 4.90184 31.2463 4.92215C31.0708 5.1074 30.8948 5.28183 30.7129 5.45131C30.5218 5.63661 30.3249 5.81646 30.1309 5.99635C29.9649 6.1401 29.7942 6.28929 29.6229 6.43306C29.5122 6.52577 29.3963 6.61801 29.2808 6.71073C29.19 6.78807 29.0944 6.85954 29.0037 6.93194C28.8629 7.04006 28.7222 7.14813 28.5809 7.25082C28.5324 7.28703 28.4838 7.32275 28.4401 7.35351C28.2591 7.48745 28.0727 7.62145 27.8814 7.74457C27.8591 7.76281 27.8356 7.77939 27.811 7.79414C27.6046 7.9331 27.3978 8.06718 27.1865 8.1958C27.0001 8.31939 26.8141 8.43256 26.6222 8.53544C26.5518 8.5821 26.4765 8.62334 26.4007 8.66459C26.2196 8.77236 26.0384 8.8757 25.8567 8.96274C25.8368 8.97318 25.8218 8.9836 25.8014 8.99355C25.5901 9.1123 25.3734 9.2207 25.1567 9.32367C25.1465 9.32371 25.1416 9.32866 25.1314 9.33413C24.9857 9.41117 24.8399 9.47839 24.6942 9.54556C24.8888 9.52954 25.0878 9.52387 25.2845 9.52314L33.7679 9.49178C34.3358 9.48924 34.9021 9.42876 35.4581 9.31125C37.3371 8.91137 39.0223 7.86626 40.2294 6.3524C41.4365 4.83848 42.0915 2.94852 42.0838 1.00159Z" fill="url(#paint3_linear)"/>
<path d="M34.2759 1.03082L25.2512 1.06418C21.2336 1.07987 17.348 2.51909 14.2664 5.13287C14.1106 5.26128 13.9544 5.39517 13.8035 5.53393C13.7771 5.61488 13.7555 5.69738 13.7387 5.78096C13.7294 5.79254 13.7241 5.80698 13.7238 5.82198L13.7238 5.8318C13.669 6.02154 13.6191 6.21619 13.5692 6.41084C13.5645 6.44146 13.5544 6.47753 13.5448 6.5136C13.4997 6.69787 13.46 6.8876 13.4203 7.07678C13.361 7.34847 13.3114 7.62012 13.2671 7.89669C13.2423 8.04485 13.2229 8.193 13.1982 8.34116C13.1735 8.52042 13.1543 8.7046 13.1345 8.88877C13.1147 9.05814 13.1002 9.22695 13.0877 9.3958C13.0831 9.48268 13.0733 9.57009 13.0687 9.66191C13.0402 10.1023 13.0262 10.5476 13.0279 10.9948C13.0283 11.1078 13.0287 11.2203 13.0345 11.3274C13.0348 11.4261 13.04 11.5169 13.0458 11.6141C13.0424 11.6672 13.0442 11.7204 13.0512 11.773C13.0515 11.8446 13.0566 11.9162 13.0622 11.9877C13.0678 12.1772 13.0836 12.3662 13.0994 12.5557C13.105 12.6327 13.1102 12.7091 13.1207 12.7861C13.1415 13.0264 13.1677 13.2617 13.2041 13.5025C13.2246 13.6505 13.2456 13.8039 13.271 13.9524C13.2713 13.9804 13.2767 14.0082 13.2869 14.0342C13.3024 14.1467 13.3228 14.2646 13.3436 14.3795C13.4207 14.814 13.5182 15.2491 13.6307 15.6731C13.6619 15.8013 13.6974 15.929 13.7334 16.0518C13.9275 16.7408 14.1591 17.4183 14.4271 18.0812C14.5038 18.27 14.5852 18.4543 14.6726 18.6381C14.8507 19.0471 15.0489 19.4457 15.2611 19.8387C15.3425 20.0023 15.4336 20.1605 15.5252 20.3191C15.7843 20.7737 16.0639 21.2178 16.3629 21.6486C16.515 21.8632 16.6672 22.0774 16.8247 22.2886C16.9768 22.4879 17.1338 22.6867 17.2912 22.8791C17.2992 22.8845 17.306 22.8916 17.3113 22.8998C17.3519 22.9559 17.3978 23.0066 17.4433 23.0627C17.6056 23.2595 17.7776 23.4509 17.9501 23.6393C16.9491 22.1537 16.4115 20.3973 16.4071 18.5981L16.4071 18.5932C16.4027 17.4084 16.6288 16.2344 17.0725 15.1384C17.5162 14.0424 18.1687 13.046 18.9928 12.2062C20.513 10.6516 22.538 9.70928 24.6917 9.55433C24.8375 9.48716 24.9833 9.41999 25.129 9.34295C25.1392 9.33748 25.144 9.33252 25.1543 9.33249C25.3709 9.22409 25.5876 9.11618 25.7989 9.00237C25.8193 8.99242 25.8344 8.982 25.8543 8.97156C26.036 8.87909 26.2171 8.77575 26.3983 8.67341C26.4741 8.63216 26.5494 8.59091 26.6198 8.54426C26.8141 8.43643 26.9976 8.32322 27.1841 8.20457C27.3953 8.07595 27.6022 7.94187 27.8085 7.8029C27.8332 7.78815 27.8567 7.77158 27.8789 7.75334C28.0654 7.63024 28.2513 7.50117 28.4377 7.36228C28.4829 7.33151 28.5285 7.29586 28.5785 7.25964C28.7197 7.15695 28.8605 7.04883 29.0012 6.94071C29.092 6.86881 29.1876 6.79688 29.2783 6.71955C29.3938 6.63225 29.5098 6.53953 29.6204 6.44189C29.7917 6.29811 29.9601 6.14888 30.1284 6.00512C30.3224 5.82523 30.5208 5.64538 30.7105 5.46008C30.8919 5.29061 31.0679 5.11622 31.2439 4.93097C31.2643 4.91066 31.2895 4.88978 31.3094 4.86947C31.4301 4.74119 31.5518 4.61246 31.6667 4.4842C32.2893 3.81468 32.8683 3.1047 33.3998 2.35887C33.6158 2.06193 33.8215 1.75855 34.0175 1.4454C34.1027 1.31724 34.1879 1.18371 34.2682 1.04966L34.2681 1.04423C34.2699 1.04526 34.2719 1.04555 34.2739 1.04504C34.2759 1.04454 34.2776 1.04326 34.2786 1.04148C34.2796 1.0397 34.2799 1.03757 34.2794 1.0356C34.2789 1.03358 34.2776 1.0319 34.2759 1.03082Z" fill="url(#paint4_linear)"/>
<g style="mix-blend-mode:multiply" opacity="0.1">
<g style="mix-blend-mode:multiply" opacity="0.1">
<path d="M25.3494 27.5922C24.7581 27.594 24.168 27.538 23.5873 27.4249C20.5436 28.68 16.7054 29.4928 11.8601 29.4949C12.9678 30.8917 14.2776 32.1105 15.7449 33.1098C19.9719 33.0864 24.0832 31.7077 27.4905 29.1711C29.2536 27.8562 30.7968 26.2622 32.0609 24.4504C31.2301 25.4319 30.2008 26.2205 29.0427 26.7627C27.8846 27.3048 26.6249 27.5877 25.3494 27.5922Z" fill="black"/>
</g>
</g>
<g style="mix-blend-mode:multiply" opacity="0.16">
<g style="mix-blend-mode:multiply" opacity="0.16">
<path d="M35.6673 14.2876L34.9002 14.2904C34.1826 17.4738 32.635 20.4031 30.4192 22.7723L33.1195 22.7624C34.5739 20.1623 35.4439 17.2684 35.6673 14.2876Z" fill="black"/>
</g>
</g>
<g style="mix-blend-mode:multiply" opacity="0.1">
<g style="mix-blend-mode:multiply" opacity="0.1">
<path d="M18.7904 2.36747C17.1504 3.04514 15.6247 3.97817 14.2683 5.13287C14.1125 5.26128 13.9563 5.39517 13.8055 5.53393C13.7791 5.61488 13.7574 5.69738 13.7407 5.78096C13.7313 5.79254 13.7261 5.80698 13.7257 5.82198L13.7258 5.8318C13.671 6.02154 13.6211 6.21619 13.5712 6.41084C13.5664 6.44146 13.5563 6.47753 13.5467 6.5136C13.5017 6.69787 13.462 6.8876 13.4223 7.07678C13.3629 7.34847 13.3133 7.62012 13.2691 7.89669C13.2443 8.04485 13.2249 8.193 13.2001 8.34116C13.1755 8.52042 13.1562 8.7046 13.1364 8.88877C13.1166 9.05814 13.1022 9.22695 13.0896 9.3958C13.0851 9.48268 13.0752 9.57009 13.0707 9.66191C13.0421 10.1023 13.0282 10.5476 13.0299 10.9948C13.0303 11.1078 13.0307 11.2203 13.0364 11.3274C13.0368 11.4261 13.042 11.5169 13.0477 11.6141C13.0444 11.6672 13.0462 11.7204 13.0532 11.773C13.0534 11.8446 13.0586 11.9162 13.0642 11.9877C13.0698 12.1772 13.0855 12.3662 13.1013 12.5557C13.107 12.6327 13.1121 12.7091 13.1226 12.7861C13.1435 13.0264 13.1696 13.2617 13.2061 13.5025C13.2266 13.6505 13.2476 13.8039 13.273 13.9524C13.2733 13.9804 13.2787 14.0082 13.2888 14.0342C13.3043 14.1467 13.3247 14.2646 13.3456 14.3795C13.4226 14.814 13.5201 15.2491 13.6327 15.6731C13.6638 15.8013 13.6993 15.929 13.7353 16.0518C13.9295 16.7408 14.1611 17.4183 14.4291 18.0812C14.5057 18.27 14.5872 18.4543 14.6745 18.6381C14.8527 19.0471 15.0508 19.4457 15.263 19.8387C15.3444 20.0023 15.4355 20.1605 15.5271 20.3191C15.7863 20.7737 16.0658 21.2178 16.3648 21.6486C16.517 21.8632 16.6692 22.0774 16.8267 22.2886C16.9788 22.4879 17.1357 22.6867 17.2932 22.8791C17.3012 22.8845 17.308 22.8916 17.3132 22.8998C17.3538 22.9559 17.3997 23.0066 17.4452 23.0627C17.6075 23.2595 17.7796 23.4509 17.9521 23.6393C16.9511 22.1537 16.4134 20.3973 16.409 18.5981L16.409 18.5932C15.5189 14.7885 15.3952 9.25598 18.6567 2.65666C18.6952 2.55731 18.7406 2.45847 18.7904 2.36747Z" fill="black"/>
</g>
</g>
<g style="mix-blend-mode:multiply" opacity="0.1">
<g style="mix-blend-mode:multiply" opacity="0.1">
<path d="M39.4088 1.01148L34.2759 1.03045C34.2759 1.03114 34.2758 1.03184 34.2755 1.03248C34.2752 1.03312 34.2749 1.03366 34.2743 1.03416C34.2738 1.03461 34.2733 1.03501 34.2726 1.03521C34.2719 1.03541 34.2713 1.03551 34.2706 1.03541L34.2706 1.04084C34.1854 1.17393 34.1051 1.30754 34.0146 1.4367C33.8211 1.74985 33.6134 2.05268 33.4023 2.3501C32.8707 3.09599 32.2917 3.80591 31.6691 4.47538C31.5533 4.60365 31.4325 4.73247 31.3118 4.86075C31.2919 4.88106 31.2667 4.90184 31.2463 4.92215C31.0708 5.1074 30.8948 5.28183 30.7129 5.45131C30.5218 5.63661 30.3249 5.81646 30.1309 5.99635C29.9649 6.1401 29.7942 6.28929 29.6229 6.43306C29.5122 6.52577 29.3963 6.61801 29.2808 6.71073C29.19 6.78807 29.0944 6.85954 29.0037 6.93194C28.8629 7.04006 28.7222 7.14813 28.5809 7.25082C28.5324 7.28703 28.4838 7.32275 28.4401 7.35351C28.2591 7.48745 28.0727 7.62145 27.8814 7.74457C27.8591 7.76281 27.8356 7.77939 27.811 7.79414C27.6046 7.9331 27.3978 8.06718 27.1865 8.1958C27.0001 8.31939 26.8141 8.43256 26.6222 8.53544C26.5518 8.5821 26.4765 8.62334 26.4007 8.66459C26.2196 8.77236 26.0384 8.8757 25.8567 8.96274C25.8368 8.97318 25.8218 8.9836 25.8014 8.99355C25.5901 9.1123 25.3734 9.2207 25.1567 9.32367C25.1465 9.32371 25.1416 9.32866 25.1314 9.33413C24.9857 9.41117 24.8399 9.47839 24.6942 9.54556C24.8888 9.52954 25.0878 9.52387 25.2845 9.52314L27.5185 9.51489C31.9353 7.74222 35.8902 4.96204 39.0768 1.38985C39.1888 1.26802 39.2983 1.13972 39.4088 1.01148Z" fill="black"/>
</g>
</g>
<g style="mix-blend-mode:screen" opacity="0.6">
<g style="mix-blend-mode:screen" opacity="0.6">
<path d="M31.0538 25.7795C29.328 27.8778 27.2039 29.6029 24.8077 30.8524C22.4115 32.1018 19.7921 32.8502 17.105 33.0531C17.1805 33.0577 17.4175 33.0672 17.7763 33.0762C18.0456 33.0827 18.3151 33.0748 18.5837 33.0525C18.9332 33.0406 19.2818 33.0087 19.6278 32.9569C19.8224 32.9354 20.017 32.9061 20.2233 32.8777C20.4251 32.836 20.6372 32.7942 20.8555 32.7524C21.2894 32.6689 21.7381 32.5394 22.202 32.4049C22.6555 32.2443 23.1398 32.1147 23.6033 31.9032C24.0772 31.7119 24.5407 31.4851 25.0042 31.2564C25.4573 30.999 25.9159 30.7565 26.3388 30.4736C26.772 30.2059 27.1694 29.8975 27.5568 29.6093C27.9397 29.3058 28.2968 29.0024 28.6184 28.6996C28.9266 28.4189 29.2203 28.1223 29.4985 27.8109C29.7651 27.5281 29.9914 27.2563 30.1871 27.0043C30.3587 26.7956 30.5195 26.578 30.669 26.3525C30.8956 26.0308 31.0263 25.8255 31.0538 25.7795Z" fill="white"/>
</g>
</g>
<g style="mix-blend-mode:screen" opacity="0.6">
<g style="mix-blend-mode:screen" opacity="0.6">
<path d="M34.272 1.0409L34.272 1.03547C34.242 1.06668 34.111 1.20536 33.9104 1.43611C33.6841 1.69311 33.3574 2.06253 32.9701 2.50423C32.7694 2.72017 32.558 2.94997 32.3317 3.1976C32.1053 3.44522 31.854 3.68554 31.6131 3.95246C31.1001 4.4662 30.5521 5.00573 29.9835 5.51967C29.415 6.04397 28.8192 6.53235 28.2679 6.98996C27.9767 7.20623 27.7142 7.43622 27.4429 7.63466C27.1715 7.83309 26.9245 8.02551 26.693 8.2006C26.2246 8.5503 25.8319 8.83359 25.545 9.03405C25.3338 9.18291 25.1926 9.29103 25.1324 9.33765C28.8971 7.51305 32.0685 4.63414 34.272 1.0409Z" fill="white"/>
</g>
</g>
<g style="mix-blend-mode:screen" opacity="0.6">
<g style="mix-blend-mode:screen" opacity="0.6">
<path d="M13.0278 10.9925C13.0189 9.2478 13.2538 7.51073 13.7257 5.833L13.7256 5.81276C13.7256 5.81276 13.6107 6.07429 13.4456 6.55071C13.2174 7.20677 13.0408 7.88012 12.9176 8.56447C12.7339 9.53794 12.6447 10.5274 12.6511 11.5185C12.6492 12.0774 12.6764 12.636 12.7327 13.1919C12.7957 13.7598 12.8786 14.338 12.9965 14.9057C13.1145 15.4733 13.2684 16.0359 13.4408 16.5822C13.5207 16.8544 13.6144 17.1223 13.7217 17.3847C13.82 17.6454 13.9251 17.9012 14.0375 18.1515C14.2422 18.6299 14.4748 19.0956 14.7338 19.5462C14.9566 19.9547 15.2018 20.3503 15.4682 20.7311C15.6872 21.0561 15.9225 21.3696 16.1731 21.6702C16.3863 21.9458 16.5988 22.1652 16.7597 22.3536C17.0738 22.6753 17.2716 22.8636 17.3068 22.8945C14.5509 19.5571 13.0367 15.3452 13.0278 10.9925Z" fill="white"/>
</g>
</g>
<g style="mix-blend-mode:multiply" opacity="0.3">
<g style="mix-blend-mode:multiply" opacity="0.3">
<path d="M42.0838 1.00177L25.2512 1.06399C21.2336 1.07968 17.348 2.5189 14.2664 5.13267C14.7396 4.77802 15.2178 4.44358 15.7165 4.1293C16.2228 3.80942 16.7455 3.51702 17.2824 3.25334C17.7309 3.02661 18.1896 2.83045 18.6533 2.64956C18.7393 2.61322 18.8297 2.58228 18.9206 2.54591C19.4754 2.3332 20.0407 2.14992 20.6143 1.99672C21.1856 1.8411 21.7647 1.71606 22.349 1.6221C22.9328 1.53801 23.5195 1.46974 24.1049 1.44142C24.6904 1.4131 25.2759 1.41631 25.8814 1.4195L27.6823 1.43313L31.2812 1.4455L34.8799 1.43219C36.2784 1.42702 37.6764 1.41327 39.0739 1.39102C39.9626 1.3828 40.8508 1.36417 41.7337 1.35054L41.7301 1.69611L41.6572 2.38733L41.5258 3.06501L41.3419 3.73645L41.0971 4.39234L40.7967 5.02276L40.4455 5.62819L40.0437 6.20272L39.6013 6.74186L39.1165 7.25055L38.593 7.71842L38.0295 8.14005L37.4249 8.51098L36.7933 8.83069L36.1382 9.09915L35.4576 9.31143C37.3366 8.91165 39.022 7.86659 40.2292 6.35272C41.4364 4.8388 42.0915 2.9488 42.0838 1.00177Z" fill="black"/>
</g>
</g>
<g style="mix-blend-mode:multiply" opacity="0.3">
<g style="mix-blend-mode:multiply" opacity="0.3">
<path d="M42.5724 18.4941L42.5568 14.2617L36.6364 14.2836C37.6207 14.3461 38.6104 14.3785 39.5947 14.4208C40.4982 14.4584 41.3958 14.4857 42.3002 14.5095L42.2314 17.7446C42.2233 18.3281 42.2307 18.8961 42.189 19.4595C42.1517 20.0257 42.0864 20.5897 41.9933 21.1492C41.909 21.7072 41.7931 22.2597 41.646 22.804C41.5043 23.3567 41.3328 23.9011 41.1322 24.4347C40.9575 24.9625 40.7122 25.4806 40.4917 25.9982C40.2263 26.4957 39.996 27.0134 39.6848 27.4854C39.4092 27.98 39.0775 28.4348 38.756 28.9019C38.5953 29.1325 38.4097 29.3474 38.2387 29.5692C38.0685 29.7952 37.8856 30.0111 37.6911 30.2158C37.5001 30.4214 37.314 30.6372 37.1181 30.8374L36.5094 31.4319C36.3155 31.6301 36.0869 31.8022 35.8754 31.992C35.6594 32.172 35.4528 32.3623 35.2212 32.527L34.5417 33.0359L33.8318 33.4995C33.5954 33.6638 33.3462 33.7975 33.1034 33.9371C32.8605 34.0767 32.6148 34.2306 32.3578 34.3495C31.8486 34.5982 31.3375 34.8498 30.8004 35.0463C30.2868 35.2683 29.7471 35.4184 29.2177 35.6049C32.3231 34.8694 35.1674 33.2777 37.4365 31.0057C39.7056 28.7337 41.3113 25.8698 42.076 22.7303C42.4141 21.3446 42.5808 19.9216 42.5724 18.4941Z" fill="black"/>
</g>
</g>
<path d="M62.6426 23.2695C62.6426 22.7161 62.4473 22.293 62.0566 22C61.666 21.7005 60.9629 21.388 59.9473 21.0625C58.9316 20.7305 58.1276 20.4049 57.5352 20.0859C55.9206 19.2135 55.1133 18.0384 55.1133 16.5605C55.1133 15.7923 55.3281 15.1087 55.7578 14.5098C56.194 13.9043 56.8158 13.4323 57.623 13.0938C58.4368 12.7552 59.3483 12.5859 60.3574 12.5859C61.373 12.5859 62.278 12.7715 63.0723 13.1426C63.8665 13.5072 64.4818 14.0247 64.918 14.6953C65.3607 15.3659 65.582 16.1276 65.582 16.9805H62.6523C62.6523 16.3294 62.4473 15.8249 62.0371 15.4668C61.627 15.1022 61.0508 14.9199 60.3086 14.9199C59.5924 14.9199 59.0358 15.0729 58.6387 15.3789C58.2415 15.6784 58.043 16.0755 58.043 16.5703C58.043 17.0326 58.2741 17.4199 58.7363 17.7324C59.2051 18.0449 59.8919 18.3379 60.7969 18.6113C62.4635 19.1126 63.6777 19.7344 64.4395 20.4766C65.2012 21.2188 65.582 22.1432 65.582 23.25C65.582 24.4805 65.1165 25.4473 64.1855 26.1504C63.2546 26.847 62.0013 27.1953 60.4258 27.1953C59.332 27.1953 58.3359 26.9967 57.4375 26.5996C56.5391 26.196 55.8522 25.6458 55.377 24.9492C54.9082 24.2526 54.6738 23.4453 54.6738 22.5273H57.6133C57.6133 24.0964 58.5508 24.8809 60.4258 24.8809C61.1224 24.8809 61.666 24.7409 62.0566 24.4609C62.4473 24.1745 62.6426 23.7773 62.6426 23.2695ZM73.7168 25.9258C73.0202 26.7721 72.0566 27.1953 70.8262 27.1953C69.6934 27.1953 68.8275 26.8698 68.2285 26.2188C67.6361 25.5677 67.3333 24.6139 67.3203 23.3574V16.4336H70.1426V23.2598C70.1426 24.36 70.6439 24.9102 71.6465 24.9102C72.6035 24.9102 73.2611 24.5781 73.6191 23.9141V16.4336H76.4512V27H73.7949L73.7168 25.9258ZM82.9746 24.9199C83.4954 24.9199 83.9186 24.7767 84.2441 24.4902C84.5697 24.2038 84.7389 23.8229 84.752 23.3477H87.3984C87.3919 24.0638 87.1966 24.7214 86.8125 25.3203C86.4284 25.9128 85.901 26.375 85.2305 26.707C84.5664 27.0326 83.8307 27.1953 83.0234 27.1953C81.513 27.1953 80.3216 26.7168 79.4492 25.7598C78.5768 24.7962 78.1406 23.4681 78.1406 21.7754V21.5898C78.1406 19.9622 78.5736 18.6634 79.4395 17.6934C80.3053 16.7233 81.4935 16.2383 83.0039 16.2383C84.3255 16.2383 85.3835 16.6159 86.1777 17.3711C86.9785 18.1198 87.3854 19.1191 87.3984 20.3691H84.752C84.7389 19.8223 84.5697 19.3796 84.2441 19.041C83.9186 18.696 83.4889 18.5234 82.9551 18.5234C82.2975 18.5234 81.7995 18.7643 81.4609 19.2461C81.1289 19.7214 80.9629 20.4961 80.9629 21.5703V21.8633C80.9629 22.9505 81.1289 23.7318 81.4609 24.207C81.793 24.6823 82.2975 24.9199 82.9746 24.9199ZM93.4043 24.9199C93.9251 24.9199 94.3483 24.7767 94.6738 24.4902C94.9993 24.2038 95.1686 23.8229 95.1816 23.3477H97.8281C97.8216 24.0638 97.6263 24.7214 97.2422 25.3203C96.8581 25.9128 96.3307 26.375 95.6602 26.707C94.9961 27.0326 94.2604 27.1953 93.4531 27.1953C91.9427 27.1953 90.7513 26.7168 89.8789 25.7598C89.0065 24.7962 88.5703 23.4681 88.5703 21.7754V21.5898C88.5703 19.9622 89.0033 18.6634 89.8691 17.6934C90.735 16.7233 91.9232 16.2383 93.4336 16.2383C94.7552 16.2383 95.8132 16.6159 96.6074 17.3711C97.4082 18.1198 97.8151 19.1191 97.8281 20.3691H95.1816C95.1686 19.8223 94.9993 19.3796 94.6738 19.041C94.3483 18.696 93.9186 18.5234 93.3848 18.5234C92.7272 18.5234 92.2292 18.7643 91.8906 19.2461C91.5586 19.7214 91.3926 20.4961 91.3926 21.5703V21.8633C91.3926 22.9505 91.5586 23.7318 91.8906 24.207C92.2227 24.6823 92.7272 24.9199 93.4043 24.9199ZM104.303 27.1953C102.753 27.1953 101.49 26.7201 100.514 25.7695C99.5436 24.819 99.0586 23.5527 99.0586 21.9707V21.6973C99.0586 20.6361 99.2637 19.6888 99.6738 18.8555C100.084 18.0156 100.663 17.3711 101.412 16.9219C102.167 16.4661 103.027 16.2383 103.99 16.2383C105.436 16.2383 106.572 16.694 107.398 17.6055C108.232 18.5169 108.648 19.8092 108.648 21.4824V22.6348H101.92C102.011 23.3249 102.285 23.8783 102.74 24.2949C103.202 24.7116 103.785 24.9199 104.488 24.9199C105.576 24.9199 106.425 24.526 107.037 23.7383L108.424 25.291C108.001 25.89 107.428 26.3587 106.705 26.6973C105.982 27.0293 105.182 27.1953 104.303 27.1953ZM103.98 18.5234C103.421 18.5234 102.965 18.7122 102.613 19.0898C102.268 19.4674 102.047 20.0078 101.949 20.7109H105.875V20.4863C105.862 19.8613 105.693 19.3796 105.367 19.041C105.042 18.696 104.579 18.5234 103.98 18.5234ZM115.982 24.0801C115.982 23.735 115.81 23.4648 115.465 23.2695C115.126 23.0677 114.579 22.8887 113.824 22.7324C111.311 22.2051 110.055 21.1374 110.055 19.5293C110.055 18.5918 110.442 17.8105 111.217 17.1855C111.998 16.554 113.017 16.2383 114.273 16.2383C115.615 16.2383 116.686 16.554 117.486 17.1855C118.294 17.8171 118.697 18.6374 118.697 19.6465H115.875C115.875 19.2428 115.745 18.9108 115.484 18.6504C115.224 18.3835 114.817 18.25 114.264 18.25C113.788 18.25 113.421 18.3574 113.16 18.5723C112.9 18.7871 112.77 19.0605 112.77 19.3926C112.77 19.7051 112.916 19.959 113.209 20.1543C113.508 20.3431 114.01 20.5091 114.713 20.6523C115.416 20.7891 116.008 20.9453 116.49 21.1211C117.981 21.668 118.727 22.6152 118.727 23.9629C118.727 24.9264 118.313 25.7077 117.486 26.3066C116.66 26.8991 115.592 27.1953 114.283 27.1953C113.398 27.1953 112.61 27.0391 111.92 26.7266C111.236 26.4076 110.699 25.9746 110.309 25.4277C109.918 24.8743 109.723 24.2786 109.723 23.6406H112.398C112.424 24.1419 112.61 24.526 112.955 24.793C113.3 25.0599 113.762 25.1934 114.342 25.1934C114.882 25.1934 115.289 25.0924 115.562 24.8906C115.842 24.6823 115.982 24.4121 115.982 24.0801ZM126.275 24.0801C126.275 23.735 126.103 23.4648 125.758 23.2695C125.419 23.0677 124.872 22.8887 124.117 22.7324C121.604 22.2051 120.348 21.1374 120.348 19.5293C120.348 18.5918 120.735 17.8105 121.51 17.1855C122.291 16.554 123.31 16.2383 124.566 16.2383C125.908 16.2383 126.979 16.554 127.779 17.1855C128.587 17.8171 128.99 18.6374 128.99 19.6465H126.168C126.168 19.2428 126.038 18.9108 125.777 18.6504C125.517 18.3835 125.11 18.25 124.557 18.25C124.081 18.25 123.714 18.3574 123.453 18.5723C123.193 18.7871 123.062 19.0605 123.062 19.3926C123.062 19.7051 123.209 19.959 123.502 20.1543C123.801 20.3431 124.303 20.5091 125.006 20.6523C125.709 20.7891 126.301 20.9453 126.783 21.1211C128.274 21.668 129.02 22.6152 129.02 23.9629C129.02 24.9264 128.606 25.7077 127.779 26.3066C126.952 26.8991 125.885 27.1953 124.576 27.1953C123.691 27.1953 122.903 27.0391 122.213 26.7266C121.529 26.4076 120.992 25.9746 120.602 25.4277C120.211 24.8743 120.016 24.2786 120.016 23.6406H122.691C122.717 24.1419 122.903 24.526 123.248 24.793C123.593 25.0599 124.055 25.1934 124.635 25.1934C125.175 25.1934 125.582 25.0924 125.855 24.8906C126.135 24.6823 126.275 24.4121 126.275 24.0801ZM147.262 25.2031C146.734 25.8346 145.989 26.3262 145.025 26.6777C144.062 27.0228 142.994 27.1953 141.822 27.1953C140.592 27.1953 139.511 26.9284 138.58 26.3945C137.656 25.8542 136.939 25.0729 136.432 24.0508C135.93 23.0286 135.673 21.8275 135.66 20.4473V19.4805C135.66 18.0612 135.898 16.834 136.373 15.7988C136.855 14.7572 137.545 13.9629 138.443 13.416C139.348 12.8626 140.406 12.5859 141.617 12.5859C143.303 12.5859 144.622 12.9896 145.572 13.7969C146.523 14.5977 147.086 15.7663 147.262 17.3027H144.41C144.28 16.4889 143.99 15.8932 143.541 15.5156C143.098 15.138 142.486 14.9492 141.705 14.9492C140.709 14.9492 139.951 15.3236 139.43 16.0723C138.909 16.821 138.645 17.9342 138.639 19.4121V20.3203C138.639 21.8112 138.922 22.9375 139.488 23.6992C140.055 24.4609 140.885 24.8418 141.979 24.8418C143.079 24.8418 143.863 24.6074 144.332 24.1387V21.6875H141.666V19.5293H147.262V25.2031ZM155.396 19.0801C155.012 19.028 154.674 19.002 154.381 19.002C153.313 19.002 152.613 19.3633 152.281 20.0859V27H149.459V16.4336H152.125L152.203 17.6934C152.77 16.7233 153.554 16.2383 154.557 16.2383C154.869 16.2383 155.162 16.2806 155.436 16.3652L155.396 19.0801ZM155.973 21.6191C155.973 20.571 156.174 19.6367 156.578 18.8164C156.982 17.9961 157.561 17.3613 158.316 16.9121C159.078 16.4629 159.96 16.2383 160.963 16.2383C162.389 16.2383 163.551 16.6745 164.449 17.5469C165.354 18.4193 165.859 19.6042 165.963 21.1016L165.982 21.8242C165.982 23.4453 165.53 24.7474 164.625 25.7305C163.72 26.707 162.506 27.1953 160.982 27.1953C159.459 27.1953 158.242 26.707 157.33 25.7305C156.425 24.7539 155.973 23.4258 155.973 21.7461V21.6191ZM158.795 21.8242C158.795 22.8268 158.984 23.5951 159.361 24.1289C159.739 24.6562 160.279 24.9199 160.982 24.9199C161.666 24.9199 162.2 24.6595 162.584 24.1387C162.968 23.6113 163.16 22.7715 163.16 21.6191C163.16 20.6361 162.968 19.8743 162.584 19.334C162.2 18.7936 161.66 18.5234 160.963 18.5234C160.273 18.5234 159.739 18.7936 159.361 19.334C158.984 19.8678 158.795 20.6979 158.795 21.8242ZM174.049 25.9258C173.352 26.7721 172.389 27.1953 171.158 27.1953C170.025 27.1953 169.16 26.8698 168.561 26.2188C167.968 25.5677 167.665 24.6139 167.652 23.3574V16.4336H170.475V23.2598C170.475 24.36 170.976 24.9102 171.979 24.9102C172.936 24.9102 173.593 24.5781 173.951 23.9141V16.4336H176.783V27H174.127L174.049 25.9258ZM188.424 21.8145C188.424 23.4421 188.053 24.7474 187.311 25.7305C186.575 26.707 185.579 27.1953 184.322 27.1953C183.255 27.1953 182.392 26.8242 181.734 26.082V31.0625H178.912V16.4336H181.529L181.627 17.4688C182.311 16.6484 183.202 16.2383 184.303 16.2383C185.605 16.2383 186.617 16.7201 187.34 17.6836C188.062 18.6471 188.424 19.9753 188.424 21.668V21.8145ZM185.602 21.6094C185.602 20.6263 185.426 19.8678 185.074 19.334C184.729 18.8001 184.225 18.5332 183.561 18.5332C182.675 18.5332 182.066 18.8717 181.734 19.5488V23.875C182.079 24.5716 182.695 24.9199 183.58 24.9199C184.928 24.9199 185.602 23.8164 185.602 21.6094Z" fill="black"/>
<defs>
<linearGradient id="paint0_linear" x1="717.429" y1="664.191" x2="698.588" y2="664.261" gradientUnits="userSpaceOnUse">
<stop stop-color="#00F3FF"/>
<stop offset="0.238" stop-color="#00EFFC"/>
<stop offset="0.44" stop-color="#00E5F4"/>
<stop offset="0.629" stop-color="#00D3E7"/>
<stop offset="0.81" stop-color="#00BAD4"/>
<stop offset="0.983" stop-color="#009BBC"/>
<stop offset="1" stop-color="#0098BA"/>
</linearGradient>
<linearGradient id="paint1_linear" x1="716.755" y1="670.24" x2="716.708" y2="657.417" gradientUnits="userSpaceOnUse">
<stop stop-color="#233B55"/>
<stop offset="1" stop-color="#131D32"/>
</linearGradient>
<linearGradient id="paint2_linear" x1="713.703" y1="685.848" x2="713.615" y2="662.019" gradientUnits="userSpaceOnUse">
<stop stop-color="#49A09D"/>
<stop offset="0.149" stop-color="#4A989B"/>
<stop offset="0.375" stop-color="#4E8396"/>
<stop offset="0.65" stop-color="#54618E"/>
<stop offset="0.96" stop-color="#5D3283"/>
<stop offset="1" stop-color="#5F2C82"/>
</linearGradient>
<linearGradient id="paint3_linear" x1="729.925" y1="651.485" x2="728.467" y2="667.384" gradientUnits="userSpaceOnUse">
<stop stop-color="#233B55"/>
<stop offset="1" stop-color="#131D32"/>
</linearGradient>
<linearGradient id="paint4_linear" x1="732.314" y1="664.432" x2="716.015" y2="678.304" gradientUnits="userSpaceOnUse">
<stop stop-color="#3E6896"/>
<stop offset="0.247" stop-color="#355881"/>
<stop offset="0.75" stop-color="#1F324E"/>
<stop offset="1" stop-color="#131D32"/>
</linearGradient>
</defs>
</svg>
