<svg width="324" height="257" viewBox="0 0 324 257" fill="none" xmlns="http://www.w3.org/2000/svg">
<g id="DESIGNED_BY_FREEPIK">
<g id="Group">
<path id="Vector" d="M177.856 11.445C181.686 13.542 185.276 15.865 188.53 18.341C199.907 26.993 209.059 39.587 220.239 48.263C230.796 56.454 243.688 58.449 255.768 59.816C276.825 62.203 320.743 85.097 312.813 127.53C309.928 142.972 299.754 153.46 294.545 167.443C289.004 182.318 289.586 200.87 280.764 213.766C276.883 219.435 271.526 223.18 266.026 226.017C229.422 244.89 188.317 244.012 149.505 241.932C118.87 240.289 69.667 248.968 42.759 227.777C29.4 217.257 36.347 188.495 27.103 173.048C19.335 160.067 8.763 151.542 3.57 135.292C-5.268 107.646 7.33 71.665 29.386 61.85C43.169 55.718 57.771 52.908 71.396 46.172C85.472 39.213 90.896 28.783 101.63 16.443C121.036 -5.86099 154.065 -1.58199 177.856 11.445Z" fill="#F2F2F2"/>
<g id="Group_2">
<path id="Vector_2" d="M269.756 143.215C269.756 143.215 270.07 143.034 270.551 142.855C271.293 142.574 272.436 142.281 273.472 142.584C273.472 142.584 274.467 148.541 275.145 150.736C275.208 150.924 275.276 151.133 275.35 151.339C275.35 151.339 275.363 151.393 275.393 151.488C276.005 153.174 276.971 155.276 277.418 157.408C281.609 154.74 289.712 148.765 293.717 148.832L293.726 148.831C294.733 148.85 295.475 149.242 295.836 150.168C295.836 150.168 297.025 155.689 289.24 159.918C286.523 161.391 283.865 162.25 281.559 162.736C278.968 163.283 276.822 163.369 275.514 163.347H275.515C275.515 163.347 273.413 163.562 272.466 162.57C271.522 161.577 271.349 159.726 271.349 159.726C270.342 155.163 269.756 143.215 269.756 143.215Z" fill="#0B4870"/>
<g id="Group_3">
<path id="Vector_3" d="M46.885 245.084C46.885 245.084 45.962 246.808 45.359 247.49C44.755 248.175 42.444 249.397 42.432 251.428C42.419 253.632 46.328 253.02 47.857 252.94C49.386 252.86 49.502 251.683 50.146 250.436C50.788 249.19 51.438 249.4 51.558 248.394C51.678 247.388 50.934 245.084 50.934 245.084H46.885Z" fill="#0B4870"/>
<g id="Group_4">
<path id="Vector_4" d="M70.158 244.883C70.158 244.883 72.043 246.987 73.955 247.428C75.868 247.867 77.205 248.43 77.221 249.637C77.235 250.845 71.717 251.639 69.527 250.423C66.262 248.606 65.93 249.153 65.567 248.246C65.205 247.338 66.002 244.911 65.979 244.623C65.949 244.266 70.158 244.883 70.158 244.883Z" fill="#0B4870"/>
</g>
<g id="Group_5">
<path id="Vector_5" d="M69.947 243.877C69.947 243.877 70.196 244.862 70.158 244.883C70.121 244.904 65.848 245.412 65.978 244.623C66.082 243.981 66.232 243.283 66.232 243.283L69.947 243.877Z" fill="#81807E"/>
</g>
<g id="Group_6">
<path id="Vector_6" d="M50.881 244.42C50.881 244.42 51.061 245.358 51.026 245.382C50.991 245.404 46.694 246.172 46.717 245.391C46.736 244.772 47.113 244.049 47.113 244.049L50.881 244.42Z" fill="#81807E"/>
</g>
<g id="Group_7">
<path id="Vector_7" d="M64.088 183.857C64.088 183.857 67.615 199.98 68.423 205.146C69.37 211.187 69.69 216.177 69.953 219.304C70.284 223.236 70.348 242.58 70.581 243.731C70.812 244.879 65.434 244.048 65.434 244.048C65.434 244.048 62.788 218.774 61.8 214.585C60.881 210.686 57.469 193.897 56.63 194.962C55.792 196.026 54.752 214.553 54.13 217.629C53.509 220.704 51.619 244.782 51.619 244.782C51.619 244.782 47.339 245.634 46.199 244.671C46.199 244.671 45.681 223.921 46.077 218.155C46.227 215.956 43.502 191.806 46.997 182.085C48.844 176.947 64.088 183.857 64.088 183.857Z" fill="#2A94F4"/>
</g>
<g id="Group_8">
<g id="Group_9">
<path id="Vector_8" d="M86.201 157.387C86.201 157.387 89.306 153.983 89.693 153.946C90.082 153.908 90.25 154.103 89.971 154.433C89.693 154.765 87.06 157.818 87.06 157.818C87.06 157.818 91.38 154.462 91.692 154.357C91.874 154.295 92.216 154.651 92.082 154.844C91.95 155.035 87.85 158.626 87.85 158.626C87.85 158.626 91.89 155.502 92.176 155.496C92.426 155.492 92.664 155.902 92.379 156.156C92.095 156.41 88.503 159.54 88.503 159.54C88.503 159.54 91.582 157.467 91.828 157.615C91.978 157.705 92.287 157.998 91.476 158.508C90.666 159.015 88.876 160.431 88.876 160.431L86.201 157.387Z" fill="#F1B99E"/>
</g>
<g id="Group_10">
<g id="Group_11">
<path id="Vector_9" d="M83.217 161.906C83.217 161.906 84.171 160.717 83.817 159.887C83.515 159.183 83.598 158.05 83.625 157.701C83.657 157.235 83.259 155.753 83.81 155.803C84.363 155.854 84.577 158.216 84.714 158.704C84.851 159.191 86.017 157.323 86.484 157.167C86.952 157.009 89.776 159.309 88.836 160.488C87.896 161.669 86.15 162.251 86.025 162.495C85.899 162.737 85.373 163.382 85.373 163.382L83.217 161.906Z" fill="#F1B99E"/>
</g>
</g>
</g>
<g id="Group_12">
<g id="Group_13">
<path id="Vector_10" d="M58.227 149.01C58.114 148.928 57.984 148.856 57.872 148.807L57.815 149.487L58.684 150.628L59.052 154.607C59.052 154.607 56.541 152.119 55.829 151.658C55.303 151.326 55.251 149.9 54.603 149.545C53.842 149.124 53.074 148.752 52.467 148.59C52.467 148.59 52.419 148.615 52.329 148.672C52.256 147.814 52.087 146.276 51.698 144.061C51.698 144.061 51.828 143.706 52.022 143.22C52.24 143.738 52.474 144.15 52.717 144.401C52.903 144.595 53.155 144.789 53.452 144.983C53.452 144.983 54.221 146.99 58.192 148.324C58.202 148.563 58.211 148.799 58.227 149.01Z" fill="#F1B99E"/>
<path id="Vector_11" d="M56.423 150.627C55.331 150.627 53.988 150.408 52.897 149.81C52.719 149.721 52.542 149.617 52.379 149.495C52.379 149.495 52.371 149.22 52.33 148.671C52.42 148.614 52.468 148.589 52.468 148.589C53.074 148.751 53.843 149.123 54.604 149.544C55.251 149.898 55.896 150.295 56.423 150.627Z" fill="#F1B99E"/>
<path id="Vector_12" d="M58.202 147.027C58.194 147.318 58.185 147.65 58.194 147.981V148.321C54.222 146.987 53.454 144.98 53.454 144.98C53.156 144.786 52.904 144.592 52.719 144.398C52.476 144.147 52.241 143.735 52.024 143.217C51.83 143.702 51.7 144.058 51.7 144.058C51.7 144.058 51.7 144.058 51.692 144.041C51.635 143.718 51.57 143.379 51.505 143.022C51.474 142.844 51.611 142.795 51.878 142.835C51.958 142.852 52.055 142.876 52.16 142.899C53.85 143.418 58.234 146.079 58.234 146.079C58.234 146.079 58.219 146.485 58.202 147.027Z" fill="#F1B99E"/>
<path id="Vector_13" d="M58.47 150.012C58.559 150.206 58.251 150.393 57.717 150.506L57.815 149.486L57.872 148.806C57.984 148.855 58.114 148.927 58.227 149.009C58.235 149.065 58.235 149.121 58.243 149.169C58.252 149.283 58.285 149.429 58.333 149.565C58.38 149.754 58.445 149.939 58.47 150.012Z" fill="#F1B99E"/>
</g>
<g id="Group_14">
<path id="Vector_14" d="M62.166 143.363C61.891 143.654 61.059 147.254 59.982 147.359C59.658 147.391 59.003 147.261 58.202 147.027C58.202 147.027 58.121 147.003 57.975 146.955C56.834 146.615 55.46 146.081 54.352 145.498C53.996 145.32 53.689 145.143 53.454 144.98C53.156 144.786 52.904 144.592 52.719 144.398C52.476 144.147 52.241 143.735 52.024 143.217C51.975 143.095 51.926 142.974 51.878 142.836C51.004 140.418 50.502 136.212 51.19 134.182C52.072 131.561 59.198 130.478 61.899 135.419C61.899 135.419 62.2 135.978 62.474 136.641C62.805 137.466 63.088 138.445 62.668 138.696C62.037 139.059 63.396 141.834 63.573 142.287C63.752 142.74 62.441 143.071 62.166 143.363Z" fill="#F1B99E"/>
</g>
<g id="Group_15">
<path id="Vector_15" d="M62.474 136.642C62.466 136.65 62.466 136.658 62.466 136.658C58.753 139.02 58.567 136.771 57.006 137.152C55.444 137.524 56.439 140.177 56.439 140.177C56.439 140.177 55.858 140.127 55.162 140.185C54.547 140.241 53.844 140.371 53.391 140.703C53.359 140.727 53.327 140.76 53.287 140.8C52.939 141.164 52.494 142.118 52.162 142.903C52.113 143.017 52.073 143.122 52.025 143.219C51.831 143.704 51.701 144.06 51.701 144.06C51.701 144.06 51.701 144.06 51.693 144.043C51.629 143.931 51.321 143.219 50.05 138.818C48.368 132.954 51.7 132.727 52.291 132.574C52.881 132.42 57.984 129.887 61.415 131.053C64.026 131.934 62.57 136.342 62.474 136.642Z" fill="#0B4870"/>
</g>
<g id="Group_16">
<path id="Vector_16" d="M54.779 138.656C54.642 138.292 54.197 136.728 52.855 137.647C51.514 138.564 53.691 141.511 53.924 141.548C54.159 141.587 55.938 141.716 54.779 138.656Z" fill="#EEA886"/>
</g>
<path id="Vector_17" d="M58.194 147.981V148.321C54.222 146.987 53.454 144.98 53.454 144.98C53.689 145.142 53.996 145.32 54.352 145.498C55.597 146.113 57.361 146.736 57.975 146.955C58.121 147.003 58.202 147.027 58.202 147.027C58.194 147.318 58.186 147.65 58.194 147.981Z" fill="#A77860"/>
</g>
<path id="Vector_18" d="M86.119 162.881C86.119 162.881 85.995 162.538 85.734 162.084C85.336 161.382 84.621 160.405 83.563 159.945C83.563 159.945 78.49 163.744 76.368 164.939C76.181 165.038 75.976 165.15 75.77 165.254C75.77 165.254 75.72 165.285 75.628 165.337C73.923 166.193 71.634 167.127 69.744 168.427C68.265 163.651 65.987 153.806 62.698 151.2L62.691 151.194C61.864 150.541 60.981 150.342 60.024 150.797C60.024 150.797 55.104 154.142 58.376 162.469C59.52 165.373 61.056 167.779 62.573 169.67C64.278 171.797 65.954 173.284 67.028 174.135H67.026C67.026 174.135 68.575 175.689 70.052 175.573C71.529 175.456 72.994 174.185 72.994 174.185H72.993C77.082 171.438 86.119 162.881 86.119 162.881Z" fill="#FCD2B1"/>
<path id="Vector_19" d="M66.258 167.054C65.846 175.846 64.495 175.442 64.649 183.288C64.649 183.408 64.689 183.781 64.73 184.088C64.746 184.282 64.77 184.452 64.787 184.526C64.827 184.745 64.868 185.278 64.334 185.383C64.318 185.529 64.302 185.666 64.277 185.787C63.815 188.269 61.324 188.31 58.462 187.43C53.964 186.055 48.503 183.809 48.503 183.809C48.503 183.809 45.335 184.292 46.225 180.378C46.67 178.396 48.706 174.479 47.962 172.594C46.709 169.391 44.849 164.231 44.08 159.936C43.772 158.247 43.586 156.871 43.57 155.73C43.538 152.325 45.074 151.104 49.782 150.011C50.396 149.865 51.011 149.729 51.61 149.599C52.048 149.501 52.475 149.421 52.895 149.34C53.479 149.227 52.948 149.721 53.506 149.656C54.152 150.012 55.029 150.938 55.555 151.269C56.267 151.73 57.831 152.361 57.831 152.361L58.202 150.355L58.234 148.992C58.348 149 58.299 149.024 58.413 149.04C58.47 149.048 58.548 149.13 58.604 149.146C58.838 149.186 58.785 149.177 59.002 149.226C60.959 149.655 62.181 150.367 63.692 151.765C66.096 153.982 66.679 158.027 66.258 167.054Z" fill="#FFE3CA"/>
<path id="Vector_20" d="M57.504 154.141C57.504 154.141 58.578 170.912 57.663 176.869C57.663 176.869 58.857 180.08 59.631 180.352C60.405 180.625 60.97 178.728 61.728 176.67C62.487 174.611 58.95 153.995 58.95 153.995L57.504 154.141Z" fill="#0E538C"/>
<path id="Vector_21" d="M56.611 153.084L57.504 154.141L58.948 153.995C58.948 153.995 59.029 153.49 59.052 152.162C59.052 152.162 58.202 151.625 57.663 151.658L56.611 153.084Z" fill="#0E538C"/>
<path id="Vector_22" d="M57.661 151.654L56.837 153.353L56.707 153.62C56.707 153.62 53.464 151.322 52.785 150.91C52.38 150.659 51.951 150.441 51.636 150.287C51.377 150.158 51.198 150.085 51.198 150.085C51.644 149.406 51.916 148.992 52.142 148.848C52.231 148.791 52.279 148.766 52.279 148.766C52.886 148.928 53.868 149.341 54.628 149.762C55.275 150.117 55.922 150.514 56.448 150.846C57.16 151.307 57.661 151.654 57.661 151.654Z" fill="#FCD2B1"/>
<path id="Vector_23" d="M59.481 152.875C59.448 152.803 59.416 152.737 59.367 152.665V152.657C58.939 151.961 57.91 151.676 57.91 151.676L58.074 150.707L58.17 149.688L58.227 149.009C58.341 149.057 58.471 149.129 58.583 149.21C58.971 149.453 59.318 149.784 59.318 149.784C59.335 149.825 59.351 149.865 59.359 149.897C60.039 151.808 59.481 152.875 59.481 152.875Z" fill="#FCD2B1"/>
</g>
<g id="Group_17">
<path id="gear-1" d="M58.131 117.298C59.898 116.219 61.548 114.967 63.059 113.553L62.935 113.218C62.957 113.197 62.981 113.178 63.003 113.157L62.835 112.703C62.884 112.657 62.937 112.614 62.986 112.567L61.347 108.143C62.081 107.308 62.769 106.429 63.39 105.496L68.88 106.062C69.86 104.273 70.671 102.369 71.279 100.365L71.131 100.242C71.159 100.15 71.193 100.061 71.221 99.968L71.055 99.83C71.105 99.68 71.159 99.531 71.205 99.38L67.173 96.034C67.235 95.705 67.29 95.371 67.335 95.033C67.419 94.427 67.472 93.819 67.511 93.218L72.566 90.957C72.55 90.271 72.502 89.593 72.441 88.917C72.34 87.188 72.097 85.491 71.712 83.839L66.273 82.91C65.967 81.977 65.596 81.077 65.188 80.194L68.191 76.044C68.139 75.959 68.081 75.877 68.027 75.793L68.133 75.647C68.066 75.538 67.992 75.432 67.924 75.324L68.116 75.057C67.039 73.292 65.785 71.641 64.371 70.13L59.203 72.043C58.35 71.272 57.435 70.566 56.478 69.915L56.955 65.295C56.925 65.278 56.893 65.264 56.861 65.246L56.898 64.898C56.874 64.884 56.847 64.874 56.825 64.86L56.882 64.308C55.092 63.327 53.19 62.516 51.186 61.912L47.651 66.17C47.059 66.045 46.463 65.935 45.854 65.852C45.245 65.769 44.639 65.715 44.037 65.676L41.776 60.624C39.683 60.668 37.63 60.939 35.644 61.404L34.715 66.843C33.55 67.223 32.419 67.688 31.329 68.23L26.865 65C25.097 66.075 23.446 67.329 21.935 68.741L22.104 69.194C22.054 69.242 22.001 69.283 21.953 69.331L22.076 69.668C22.055 69.688 22.031 69.707 22.009 69.727L23.648 74.152C22.914 74.988 22.226 75.868 21.606 76.8L16.116 76.235C15.134 78.024 14.324 79.926 13.718 81.933L13.884 82.071C13.835 82.221 13.78 82.368 13.734 82.521L13.882 82.644C13.853 82.736 13.819 82.826 13.791 82.918L17.821 86.26C17.76 86.594 17.704 86.926 17.658 87.264C17.575 87.872 17.521 88.477 17.485 89.079L12.43 91.34C12.436 91.537 12.451 91.73 12.459 91.924L12.447 91.929C12.471 93.082 12.571 94.22 12.727 95.343C12.86 96.397 13.044 97.436 13.284 98.459L18.725 99.385C19.028 100.317 19.399 101.219 19.808 102.102L16.806 106.252C16.872 106.361 16.947 106.466 17.013 106.575L16.823 106.84C16.875 106.925 16.931 107.007 16.985 107.091L16.879 107.237C17.955 109.005 19.21 110.656 20.622 112.169L25.791 110.252C26.646 111.023 27.558 111.731 28.517 112.38L28.04 117.001C28.064 117.013 28.09 117.026 28.114 117.039L28.057 117.589C28.087 117.607 28.119 117.62 28.15 117.637L28.113 117.987C29.902 118.97 31.805 119.779 33.81 120.386L37.345 116.125C37.938 116.25 38.533 116.362 39.142 116.445C39.749 116.528 40.354 116.581 40.958 116.617L43.22 121.673C45.315 121.626 47.365 121.358 49.352 120.893L50.279 115.452C51.445 115.072 52.576 114.607 53.666 114.065L58.131 117.298ZM37.53 91.523C37.535 91.337 37.549 91.152 37.574 90.963C37.947 88.227 40.478 86.306 43.212 86.682C45.397 86.981 47.059 88.657 47.449 90.711C47.454 90.752 47.46 90.793 47.464 90.834C47.458 91.001 47.444 91.167 47.421 91.334C47.048 94.066 44.518 95.989 41.781 95.616C39.575 95.314 37.899 93.608 37.53 91.523Z" fill="url(#paint0_linear)"/>
<path id="Vector_24" d="M95.476 58.673C96.844 57.458 97.987 55.988 98.841 54.328L104.673 53.158C104.962 52.191 105.2 51.203 105.344 50.172C105.483 49.144 105.517 48.127 105.501 47.119L105.439 47.087C105.438 46.965 105.446 46.842 105.443 46.722L105.42 46.709C105.421 46.517 105.431 46.324 105.428 46.132L100.125 43.441C99.78 41.782 99.155 40.217 98.305 38.792L100.024 33.7C99.978 33.652 99.927 33.608 99.88 33.559L99.967 33.302C99.915 33.246 99.858 33.198 99.806 33.143L99.951 32.713C98.558 31.24 96.936 29.982 95.137 28.981L90.154 32.226C89.292 31.941 88.395 31.721 87.465 31.592C86.532 31.465 85.608 31.437 84.702 31.481L80.773 27.015C78.771 27.497 76.871 28.274 75.132 29.319L75.163 29.9C75.158 29.903 75.152 29.904 75.148 29.908L75.437 35.274C74.074 36.486 72.937 37.95 72.083 39.606L66.252 40.776C65.965 41.743 65.726 42.733 65.584 43.76C65.444 44.789 65.409 45.807 65.427 46.815L65.451 46.829C65.451 47.019 65.44 47.214 65.443 47.404L65.505 47.435C65.505 47.557 65.499 47.68 65.501 47.8L70.802 50.494C71.145 52.153 71.772 53.716 72.622 55.142L70.902 60.234C70.954 60.289 71.011 60.338 71.065 60.392L70.919 60.823C70.965 60.871 71.016 60.916 71.063 60.964L70.975 61.221C72.369 62.694 73.991 63.952 75.791 64.953L80.773 61.708C81.634 61.992 82.532 62.215 83.462 62.344C84.396 62.469 85.318 62.495 86.226 62.455L90.154 66.918C92.157 66.437 94.058 65.658 95.795 64.615L95.476 58.673ZM80.495 47.336C80.5 47.152 80.512 46.969 80.537 46.781C80.913 44.046 83.442 42.126 86.178 42.498C88.365 42.797 90.026 44.475 90.416 46.531C90.42 46.572 90.426 46.611 90.43 46.65C90.424 46.817 90.409 46.984 90.387 47.151C90.013 49.886 87.483 51.809 84.747 51.434C82.538 51.133 80.862 49.424 80.495 47.336Z" fill="#D3D3D3"/>
<path id="gear-4" opacity="0.4" d="M181.564 177.085L192.066 184.19C193.966 182.357 195.754 180.451 197.422 178.468L197.195 178.177C197.248 178.116 197.301 178.055 197.352 177.993L197.056 177.613C197.147 177.506 197.243 177.4 197.332 177.293L190.029 167.935C190.771 166.951 191.493 165.959 192.168 164.939L204.134 169.076C205.488 166.83 206.723 164.522 207.821 162.164L207.605 162C207.654 161.896 207.707 161.794 207.755 161.691L207.492 161.493C207.572 161.324 207.655 161.158 207.733 160.99L198.041 153.678C198.464 152.611 198.866 151.537 199.229 150.45L211.846 151.349C212.569 148.831 213.151 146.28 213.605 143.705L213.459 143.645C213.485 143.508 213.514 143.37 213.539 143.232L213.396 143.174C213.436 142.959 213.479 142.744 213.518 142.529L202.009 137.874C202.135 136.795 202.238 135.713 202.306 134.629L214.721 132.237C214.772 129.621 214.695 127.006 214.471 124.395L214.452 124.392C214.425 124.001 214.417 123.61 214.384 123.221L201.825 121.67C201.687 120.607 201.514 119.547 201.322 118.489L212.602 113.007C212.566 112.857 212.523 112.706 212.486 112.558L212.536 112.534C212.483 112.324 212.425 112.113 212.371 111.903L212.516 111.833C211.896 109.31 211.126 106.807 210.231 104.337L197.691 106.096C197.262 105.059 196.789 104.034 196.297 103.015L205.541 95.008C205.474 94.889 205.404 94.771 205.336 94.652L205.473 94.535C205.384 94.374 205.289 94.215 205.199 94.054L205.453 93.833C204.196 91.563 202.813 89.347 201.3 87.187L189.627 92.137C189.187 91.561 188.752 90.984 188.288 90.421C187.986 90.055 187.675 89.697 187.362 89.342L194.056 79.45C193.98 79.372 193.903 79.296 193.826 79.218L193.989 78.977C193.892 78.876 193.792 78.781 193.696 78.681L193.969 78.277C192.139 76.373 190.23 74.589 188.248 72.921L178.254 80.717C177.227 79.925 176.18 79.167 175.113 78.446L178.945 67.38C178.881 67.343 178.816 67.307 178.752 67.269L178.877 66.908C178.805 66.865 178.731 66.823 178.658 66.78L178.857 66.207C176.608 64.852 174.302 63.617 171.942 62.519L164.311 72.636C163.021 72.1 161.714 71.617 160.396 71.171L161.216 59.667C161.183 59.657 161.151 59.65 161.116 59.64L161.149 59.195C161.126 59.189 161.102 59.181 161.079 59.175L161.129 58.492C158.61 57.769 156.058 57.189 153.482 56.735L148.742 68.457C147.304 68.266 145.859 68.127 144.41 68.033L142.017 55.62C139.402 55.569 136.785 55.647 134.175 55.871L132.625 68.428C131.187 68.615 129.752 68.846 128.325 69.136L122.788 57.739C120.263 58.361 117.76 59.129 115.294 60.025L115.387 60.7C115.363 60.709 115.338 60.717 115.312 60.726L116.976 72.596C115.662 73.14 114.37 73.742 113.086 74.38L104.786 64.802C102.515 66.056 100.3 67.442 98.138 68.957L98.372 69.511C98.301 69.561 98.228 69.609 98.157 69.657L98.327 70.061C98.294 70.084 98.259 70.106 98.224 70.131L102.776 80.866C102.305 81.224 101.836 81.586 101.373 81.967C100.81 82.432 100.269 82.912 99.729 83.389L89.228 76.285C87.326 78.116 85.539 80.023 83.871 82.009L84.167 82.388C84.076 82.496 83.98 82.601 83.89 82.708L84.118 82.998C84.065 83.061 84.012 83.12 83.959 83.183L91.266 92.541C90.522 93.524 89.797 94.519 89.12 95.539L77.158 91.398C75.804 93.647 74.567 95.953 73.47 98.31L73.733 98.51C73.653 98.676 73.569 98.844 73.491 99.012L73.708 99.175C73.658 99.279 73.606 99.381 73.558 99.486L83.254 106.796C82.83 107.864 82.429 108.94 82.066 110.025L69.446 109.125C68.722 111.646 68.141 114.196 67.687 116.772L67.83 116.829C67.79 117.043 67.746 117.257 67.709 117.474L67.855 117.533C67.83 117.672 67.801 117.808 67.776 117.947L79.285 122.604C79.162 123.681 79.056 124.761 78.987 125.845L66.575 128.238C66.548 129.631 66.56 131.022 66.608 132.416C66.645 133.871 66.72 135.327 66.844 136.781L66.878 136.785C66.892 136.942 66.899 137.098 66.912 137.254L79.469 138.803C79.606 139.867 79.78 140.928 79.972 141.985L68.692 147.466C68.744 147.677 68.802 147.887 68.856 148.098L68.71 148.167C68.748 148.317 68.789 148.466 68.827 148.615L68.777 148.64C69.399 151.167 70.17 153.666 71.063 156.135L83.602 154.376C84.032 155.413 84.503 156.439 84.996 157.458L75.758 165.469C75.847 165.63 75.941 165.789 76.031 165.949L75.777 166.169C75.841 166.289 75.912 166.407 75.979 166.526L75.843 166.643C77.097 168.909 78.482 171.125 79.995 173.289L91.67 168.34C92.11 168.913 92.546 169.492 93.007 170.055C93.31 170.422 93.622 170.78 93.935 171.133L87.24 181.028C87.336 181.127 87.436 181.224 87.533 181.324L87.26 181.729C87.335 181.807 87.413 181.882 87.489 181.961L87.327 182.201C89.155 184.099 91.063 185.885 93.05 187.556L103.039 179.753C104.067 180.548 105.115 181.306 106.181 182.027L102.35 193.093C102.422 193.136 102.496 193.176 102.569 193.22L102.37 193.794C102.434 193.833 102.499 193.868 102.562 193.906L102.438 194.266C104.688 195.62 106.995 196.859 109.353 197.954L116.984 187.84C118.274 188.373 119.581 188.858 120.898 189.301L120.08 200.808C120.102 200.815 120.126 200.821 120.148 200.827L120.099 201.511C120.133 201.521 120.165 201.53 120.199 201.538L120.168 201.982C122.687 202.703 125.237 203.284 127.813 203.737L132.553 192.016C133.992 192.205 135.436 192.35 136.884 192.44L139.28 204.856C141.892 204.905 144.509 204.826 147.121 204.602L148.669 192.047C150.109 191.859 151.541 191.627 152.971 191.336L158.507 202.736C161.031 202.112 163.534 201.347 166.001 200.449L165.84 199.301C165.864 199.292 165.889 199.284 165.913 199.275L164.316 187.882C165.632 187.338 166.927 186.733 168.211 186.095L176.512 195.672C178.779 194.416 180.994 193.031 183.158 191.52L182.986 191.117C183.021 191.095 183.055 191.071 183.09 191.048L182.856 190.492C182.927 190.442 182.999 190.396 183.07 190.346L178.519 179.604C178.989 179.246 179.461 178.887 179.924 178.508C180.485 178.045 181.026 177.564 181.564 177.085ZM167.424 162.252C149.45 177.039 122.791 174.445 108.006 156.472C104.332 152.006 101.734 147.003 100.174 141.78C96.028 126.348 100.895 109.194 114.014 98.401C131.894 83.69 158.41 86.271 173.119 104.15C179.525 111.939 182.649 121.365 182.66 130.741C182.636 133.195 182.397 135.642 181.95 138.055C180.093 147.232 175.202 155.854 167.424 162.252Z" fill="url(#paint1_linear)"/>
<path id="gear-3" d="M276.016 139.254L284.893 145.807C286.278 144.541 287.555 143.195 288.743 141.786L288.561 141.563C288.612 141.503 288.666 141.446 288.715 141.385L288.483 141.098C288.57 140.997 288.66 140.899 288.745 140.797L282.19 132.678C282.887 131.683 283.535 130.66 284.112 129.604L294.811 132.261C295.594 130.571 296.26 128.836 296.817 127.066L296.682 126.992C296.717 126.884 296.756 126.775 296.79 126.666L296.651 126.589C296.705 126.419 296.766 126.249 296.82 126.077L287.336 120.909C287.572 119.812 287.768 118.708 287.893 117.592L298.78 115.954C298.824 114.977 298.831 114 298.809 113.022C298.809 111.814 298.778 110.603 298.676 109.393L287.715 108.227C287.546 107.11 287.305 106.004 287.019 104.905L296.233 99.355C296.192 99.242 296.146 99.129 296.104 99.016L296.208 98.954C296.149 98.799 296.09 98.644 296.029 98.49L296.236 98.366C295.607 96.637 294.867 94.933 294.002 93.269L283.414 96.388C283.046 95.782 282.691 95.169 282.277 94.579C281.981 94.153 281.664 93.756 281.343 93.361L287.517 84.999C287.458 84.935 287.396 84.874 287.336 84.809L287.491 84.599C287.417 84.517 287.339 84.44 287.263 84.359L287.52 84.011C286.254 82.628 284.909 81.348 283.499 80.166L274.928 87.086C273.836 86.283 272.698 85.569 271.528 84.919L273.97 75.086C273.932 75.069 273.894 75.055 273.857 75.036L273.944 74.684C273.909 74.669 273.874 74.655 273.839 74.638L273.974 74.096C272.283 73.312 270.548 72.646 268.778 72.088L263.509 81.756C262.125 81.418 260.72 81.169 259.302 81.014L257.665 70.127C255.81 70.044 253.952 70.075 252.095 70.231L250.929 81.194C249.524 81.407 248.13 81.707 246.751 82.108L241.068 72.67C239.337 73.302 237.635 74.045 235.971 74.908L236.117 75.409C236.06 75.439 236 75.467 235.94 75.496L236.046 75.858C236.021 75.872 235.991 75.882 235.966 75.896L238.839 85.646C238.316 85.962 237.787 86.275 237.279 86.63C236.688 87.044 236.145 87.497 235.591 87.942L226.713 81.384C225.329 82.654 224.05 83.997 222.864 85.407L223.096 85.693C223.01 85.795 222.922 85.893 222.835 85.994L223.016 86.217C222.963 86.278 222.912 86.335 222.861 86.395L229.417 94.517C228.72 95.51 228.071 96.532 227.495 97.59L216.796 94.932C216.013 96.623 215.347 98.357 214.791 100.128L214.93 100.205C214.876 100.376 214.816 100.545 214.761 100.717L214.896 100.79C214.861 100.899 214.822 101.008 214.789 101.117L224.271 106.284C224.035 107.381 223.839 108.486 223.716 109.602L212.827 111.24C212.819 111.434 212.827 111.631 212.819 111.825L212.798 111.83C212.718 113.683 212.747 115.541 212.905 117.399H212.91C212.921 117.532 212.92 117.666 212.932 117.799L223.891 118.966C224.06 120.082 224.302 121.189 224.59 122.287L215.372 127.837C215.429 127.992 215.49 128.147 215.55 128.302L215.342 128.425C215.385 128.538 215.43 128.652 215.473 128.764L215.369 128.826C215.999 130.555 216.74 132.257 217.603 133.922L228.191 130.804C228.56 131.41 228.915 132.023 229.33 132.614C229.625 133.038 229.941 133.435 230.262 133.83L224.088 142.193C224.162 142.274 224.239 142.351 224.315 142.432L224.057 142.78C224.118 142.845 224.18 142.907 224.239 142.971L224.084 143.18C225.353 144.564 226.698 145.842 228.107 147.025L236.677 140.105C237.768 140.908 238.906 141.622 240.077 142.273L237.635 152.105C237.67 152.121 237.705 152.135 237.739 152.152L237.605 152.693C237.642 152.711 237.68 152.725 237.718 152.744L237.63 153.094C239.322 153.878 241.057 154.545 242.827 155.103L248.095 145.436C249.482 145.774 250.884 146.022 252.302 146.178L253.941 157.066C255.796 157.149 257.653 157.118 259.509 156.958L260.677 145.998C262.081 145.786 263.474 145.487 264.854 145.083L270.537 154.521C272.266 153.89 273.969 153.151 275.633 152.283L275.528 151.923C275.553 151.909 275.581 151.896 275.608 151.883L275.462 151.383C275.52 151.354 275.579 151.324 275.638 151.294L272.766 141.547C273.291 141.231 273.818 140.918 274.328 140.562C274.918 140.15 275.463 139.695 276.016 139.254ZM270.628 134.281C258.951 142.451 242.802 139.602 234.63 127.924C231.584 123.57 230.072 118.599 229.975 113.649C230.121 105.658 233.948 97.84 240.983 92.916C252.661 84.745 268.807 87.595 276.981 99.273C279.749 103.229 281.248 107.696 281.571 112.19C281.613 112.931 281.626 113.672 281.604 114.411C281.206 122.098 277.408 129.534 270.628 134.281Z" fill="url(#paint2_linear)"/>
<path id="gear-2" d="M226.1 79.755C227.67 78.859 229.14 77.77 230.488 76.512L230.325 76.208C230.36 76.176 230.397 76.146 230.43 76.114L230.21 75.705C230.278 75.644 230.348 75.587 230.414 75.525L226.514 68.259C226.813 67.863 227.103 67.455 227.364 67.021C227.706 66.457 227.991 65.878 228.25 65.291L237.214 65.343C237.694 63.563 237.969 61.755 238.028 59.947L237.948 59.923C237.955 59.799 237.968 59.675 237.971 59.55L237.918 59.534C237.93 59.344 237.948 59.152 237.954 58.961L229.368 56.373C229.25 55.36 229.027 54.365 228.709 53.397L234.887 47.292C234.832 47.197 234.771 47.104 234.714 47.011L234.831 46.895C234.757 46.767 234.675 46.645 234.599 46.519L234.813 46.306C233.916 44.737 232.827 43.268 231.568 41.917L223.671 46.157C223.167 45.759 222.645 45.38 222.081 45.042C221.543 44.717 220.987 44.443 220.428 44.194L220.476 36.178C220.455 36.174 220.436 36.17 220.416 36.165L220.418 35.781C220.411 35.779 220.404 35.779 220.397 35.777L220.401 35.191C218.62 34.71 216.812 34.435 215.004 34.375L212.414 42.963C211.126 43.117 209.863 43.428 208.653 43.899L202.347 37.519C200.779 38.417 199.309 39.505 197.959 40.762L198.178 41.172C198.112 41.233 198.042 41.289 197.975 41.351L198.139 41.655C198.106 41.688 198.067 41.717 198.033 41.749L201.934 49.018C201.633 49.414 201.344 49.819 201.081 50.254C200.742 50.816 200.457 51.399 200.199 51.985L191.234 51.932C190.752 53.713 190.477 55.52 190.418 57.328L190.472 57.344C190.461 57.535 190.442 57.726 190.436 57.917L190.515 57.939C190.51 58.065 190.495 58.189 190.493 58.313L199.081 60.904C199.2 61.917 199.423 62.914 199.738 63.881L193.562 69.985C193.635 70.114 193.717 70.237 193.792 70.362L193.579 70.573C193.633 70.669 193.695 70.761 193.753 70.856L193.636 70.971C194.533 72.541 195.622 74.011 196.879 75.358L204.777 71.122C205.279 71.517 205.804 71.897 206.367 72.237C206.907 72.562 207.459 72.834 208.02 73.085L207.974 81.098C207.981 81.101 207.988 81.103 207.994 81.103L207.991 81.688C208.012 81.693 208.031 81.697 208.051 81.702L208.049 82.085C209.826 82.566 211.638 82.842 213.444 82.9L216.035 74.313C217.321 74.16 218.585 73.847 219.797 73.379L226.1 79.755ZM204.076 59.383C204.027 57.505 204.484 55.594 205.521 53.87C208.424 49.053 214.703 47.491 219.521 50.392C222.179 51.992 223.836 54.621 224.31 57.462C224.335 57.663 224.357 57.863 224.371 58.066C224.388 59.887 223.931 61.734 222.924 63.406C220.022 68.223 213.746 69.785 208.926 66.881C206.136 65.201 204.448 62.388 204.076 59.383Z" fill="url(#paint3_linear)"/>
<path id="Vector_25" d="M313.043 98.863L312.956 98.302C312.978 98.292 313.003 98.283 313.025 98.275L312.173 92.724C312.546 92.487 312.911 92.235 313.262 91.946C313.636 91.639 313.974 91.309 314.296 90.967L320.473 93.195C321.24 92.084 321.871 90.903 322.355 89.67L322.181 89.544C322.22 89.452 322.261 89.363 322.296 89.273L322.093 89.124C322.155 88.977 322.222 88.833 322.281 88.685L317.194 84.951C317.292 84.291 317.353 83.627 317.336 82.959L323.279 80.165C323.256 80.036 323.224 79.908 323.197 79.78L323.222 79.768C323.189 79.586 323.146 79.406 323.107 79.224L323.206 79.179C322.971 77.875 322.578 76.593 322.038 75.356L315.549 76.351C315.299 75.954 315.03 75.565 314.724 75.191C314.514 74.936 314.289 74.7 314.061 74.471L316.046 68.967C315.992 68.931 315.938 68.899 315.883 68.862L315.988 68.571C315.927 68.53 315.864 68.491 315.802 68.451L315.972 67.981C314.861 67.214 313.681 66.582 312.446 66.1L308.558 71.394C307.63 71.184 306.683 71.092 305.732 71.12L302.939 65.175C301.636 65.411 300.355 65.804 299.117 66.342L299.204 66.903C299.18 66.914 299.157 66.922 299.135 66.932L299.196 67.328C299.195 67.329 299.193 67.329 299.192 67.329L300.043 72.879C299.67 73.117 299.304 73.37 298.953 73.658C298.58 73.965 298.242 74.296 297.919 74.637L291.744 72.409C290.977 73.52 290.345 74.701 289.862 75.935L290.066 76.083C290.004 76.23 289.936 76.375 289.878 76.522L290.051 76.648C290.012 76.74 289.971 76.829 289.934 76.919L295.022 80.654C294.924 81.313 294.863 81.977 294.881 82.644L288.936 85.44C288.969 85.621 289.012 85.8 289.051 85.983L288.952 86.028C288.975 86.157 289.008 86.286 289.033 86.414L289.01 86.427C289.246 87.728 289.639 89.009 290.177 90.249L296.666 89.253C296.916 89.65 297.185 90.041 297.492 90.413C297.701 90.669 297.927 90.904 298.154 91.134L296.17 96.637C296.231 96.679 296.293 96.715 296.356 96.757L296.186 97.226C296.24 97.262 296.295 97.295 296.349 97.331L296.244 97.622C297.356 98.389 298.538 99.021 299.77 99.504L303.659 94.209C304.585 94.42 305.533 94.512 306.484 94.484L309.277 100.43C310.581 100.192 311.861 99.799 313.099 99.26L313.037 98.864C313.039 98.864 313.041 98.863 313.043 98.863ZM304.562 81.371C305.624 80.498 307.195 80.652 308.066 81.711C308.292 81.984 308.445 82.291 308.537 82.609C308.461 83.222 308.165 83.808 307.653 84.23C306.591 85.102 305.021 84.949 304.148 83.889C303.923 83.616 303.77 83.309 303.679 82.992C303.754 82.379 304.049 81.793 304.562 81.371Z" fill="#D3D3D3"/>
</g>
<g id="Group_18">
<g id="Group_19">
<path id="Vector_26" d="M116.348 87.217C116.348 87.217 116.96 90.947 116.615 91.886C116.269 92.823 112.792 97.14 113.584 99.219C114.443 101.475 119.796 97.149 121.325 96.459C122.854 95.771 122.507 94.524 122.671 92.996C122.834 91.466 123.58 91.425 123.304 90.35C123.029 89.275 120.484 85.612 120.484 85.612L116.348 87.217Z" fill="#D3D3D3"/>
</g>
<g id="Group_20">
<path id="Vector_27" d="M134.39 88.226C134.39 88.226 135.729 91.418 136.849 93.097C137.968 94.776 143.784 96.356 143.911 98.649C144.038 100.94 137.026 99.518 134.839 98.772C132.652 98.026 132.321 95.788 130.999 95.229C129.675 94.668 128.988 94.215 129.09 93.123C129.193 92.031 129.831 88.157 129.831 88.157C129.831 88.157 130.823 88.103 131.308 88.157C131.789 88.208 133.245 88.543 134.39 88.226Z" fill="#D3D3D3"/>
</g>
<g id="Group_21">
<path id="Vector_28" d="M119.486 28.23C119.486 28.23 120.326 33.215 121.001 36.509C121.275 37.843 121.522 38.902 121.676 39.235C121.869 39.654 123.444 41.344 125.369 43.327C128.748 46.806 133.215 51.189 133.215 51.189L134.96 47.874C134.96 47.874 130.994 43.225 128.306 40.122C127.061 38.686 126.09 37.584 125.912 37.425C125.35 36.92 124.697 31.965 123.78 27.883C122.863 23.801 121.025 21.544 121.025 21.544L119.486 28.23Z" fill="#2563FF"/>
</g>
<g id="Group_22">
<path id="Vector_29" d="M125.369 43.327C128.748 46.806 133.215 51.189 133.215 51.189L134.96 47.874C134.96 47.874 130.994 43.225 128.306 40.122C127.48 40.527 125.969 41.491 125.369 43.327Z" fill="#F1B99E"/>
</g>
<g id="Group_23">
<path id="Vector_30" d="M103.491 50.514C103.367 50.957 126.469 50.514 126.469 50.514C126.469 50.514 120.078 45.864 119.665 44.62C119.25 43.378 121.291 35.923 121.559 33.495C121.772 31.555 122.305 22.869 121.026 21.544C119.689 20.156 114.872 18.703 114.872 18.703L107.851 18.964C107.851 18.964 106.693 19.206 105.864 19.592C105.037 19.975 100.299 21.663 99.529 24.03C98.759 26.396 104.256 34.006 104.256 34.006C104.256 34.006 104.268 34.35 104.284 34.908C104.305 35.656 104.336 36.793 104.365 38.024C104.402 39.619 104.434 41.376 104.434 42.66C104.433 45.678 103.615 50.069 103.491 50.514Z" fill="#2563FF"/>
</g>
<g id="Group_24">
<path id="Vector_31" d="M103.491 50.514C103.491 50.514 100.349 55.13 100.304 58.282C100.259 61.431 105.88 71.986 106.732 73.494C109.289 78.032 116.302 87.823 116.302 87.823C116.302 87.823 117.509 87.791 121.281 86.327C121.281 86.327 116.616 73.397 116.025 72.054C113.516 66.362 112.117 62.324 112.96 61.347C113.804 60.37 116.103 59.391 116.768 58.814C117.434 58.237 129.03 61.006 130.246 61.32C133.392 62.136 131.959 67.611 131.262 70.066C130.098 74.169 129.08 89 129.08 89C129.08 89 131.32 89.955 135.074 89.146C135.074 89.146 142.445 62.371 142.682 59.708C142.917 57.045 143.035 52.655 124.87 49.317L103.491 50.514Z" fill="#0B4870"/>
</g>
<g id="Group_25">
<path id="Vector_32" d="M112.945 3.44601C112.945 3.44601 119.04 2.07201 117.647 9.74301C116.255 17.414 114.789 18.016 111.111 16.429C107.433 14.842 107.764 9.92801 107.579 7.51801C107.395 5.10801 111 3.53101 112.945 3.44601Z" fill="#F1B99E"/>
</g>
<g id="Group_26">
<path id="Vector_33" d="M114.557 20.673C114.557 20.673 111.858 23.533 107.592 20.933C107.592 20.933 108.546 14.731 108.045 11.711C107.542 8.68902 113.611 16.392 113.611 16.392C113.53 16.433 113.478 16.721 113.465 17.131C113.455 17.479 113.473 17.914 113.529 18.361C113.654 19.364 113.967 20.426 114.557 20.673Z" fill="#F1B99E"/>
</g>
<g id="Group_27">
<path id="Vector_34" d="M107.877 11.452C107.877 11.452 108.033 9.03602 108.916 8.96002C109.799 8.88602 109.934 9.85802 109.934 9.85802L110.827 10.027C110.827 10.027 110.546 7.90902 111.428 7.53902C112.309 7.16902 117.138 8.70502 117.845 8.08302C118.554 7.46102 120.01 2.14502 118.609 2.27902C112.963 2.81702 112.127 0.672021 109.538 2.42502C109.538 2.42502 107.52 2.19402 107.221 3.82202C106.92 5.45002 107.328 10.242 107.877 11.452Z" fill="#0E538C"/>
</g>
<g id="Group_28">
<path id="Vector_35" d="M113.529 18.361C109.127 17.003 108.797 14.352 108.791 14.311C110.24 16.8 113.465 17.13 113.465 17.13C113.455 17.479 113.473 17.914 113.529 18.361Z" fill="#A77860"/>
</g>
<g id="Group_29">
<path id="Vector_36" d="M105.789 19.624C105.789 19.624 109.014 26.039 114.221 25.626C119.428 25.212 115.108 18.763 114.871 18.703C114.61 18.637 109.531 17.373 105.789 19.624Z" fill="#2563FF"/>
</g>
<g id="Group_30">
<path id="Vector_37" d="M129.111 50.189C129.111 50.189 113.158 52.156 103.491 50.513L121.961 48.206C121.961 48.207 122.069 48.676 129.111 50.189Z" fill="#0B4870"/>
</g>
<g id="Group_31">
<path id="Vector_38" d="M117.178 47.481L118.368 48.083C118.368 48.083 118.097 49.971 117.445 50.542L116.113 50.201C116.113 50.201 116.39 48.132 117.178 47.481Z" fill="#EEA886"/>
</g>
<g id="Group_32">
<path id="Vector_39" d="M104.282 34.908C104.303 35.656 104.334 36.793 104.363 38.024C106.529 32.714 105.277 28.479 105.256 28.407C105.49 29.848 104.299 34.838 104.282 34.908Z" fill="#2563FF"/>
</g>
<g id="Group_33">
<path id="Vector_40" d="M121.001 36.51C121.275 37.844 121.522 38.903 121.676 39.236C122.416 35.656 121.75 31.073 121.75 31.073C121.648 33.262 121.001 36.51 121.001 36.51Z" fill="#2563FF"/>
</g>
<g id="Group_34">
<path id="Vector_41" d="M117.523 50.359L140.199 50.027L128.75 55.84L117.523 50.359Z" fill="white"/>
</g>
<g id="Group_35">
<path id="Vector_42" d="M128.75 55.84L117.523 51.49V50.359L129.638 54.731L128.75 55.84Z" fill="#D3D3D3"/>
</g>
<g id="Group_36">
<g id="Group_37">
<path id="Vector_43" d="M98.719 43.615C98.956 43.889 102.092 45.15 105.635 46.515H105.636C110.476 48.381 115.936 50.143 115.936 50.143L117.178 47.481C117.178 47.481 111.461 44.375 107.598 42.193C105.772 41.165 104.362 40.342 104.161 40.152C103.539 39.56 103.379 38.612 103.836 36.958C104.293 35.303 105.345 27.697 105.464 26.81C105.582 25.922 105.168 23.555 102.947 23.438C100.729 23.319 99.599 23.945 99.599 23.945C99.599 23.945 99.042 24.177 98.628 29.562C98.214 34.947 98.155 42.965 98.719 43.615Z" fill="#2563FF"/>
</g>
<g id="Group_38">
<path id="Vector_44" d="M105.635 46.516C110.476 48.382 116.114 50.202 116.114 50.202L117.178 47.482C117.178 47.482 111.461 44.376 107.598 42.194C107.598 42.193 106.191 42.879 105.635 46.516Z" fill="#F1B99E"/>
</g>
<g id="Group_39">
<g id="Group_40">
<path id="Vector_45" d="M118.111 48.124C118.111 48.124 119.527 47.903 120.507 47.676C121.265 47.498 123.149 47.741 123.628 48.229C124.107 48.715 125.634 52.102 125.921 52.309C126.211 52.516 125.774 52.996 125.268 52.754C125.268 52.754 124.801 54.236 123.654 53.682C122.506 53.126 121.726 51.915 121.124 51.702C120.523 51.489 117.021 50.412 117.021 50.412C117.021 50.412 117.209 47.763 118.111 48.124Z" fill="#F1B99E"/>
</g>
</g>
<g id="Group_41">
<g id="Group_42">
<path id="Vector_46" d="M123.281 48.006C123.281 48.006 124.191 48.444 124.429 48.642C124.666 48.838 125.629 49.558 125.863 49.728C126.097 49.898 125.511 50.38 123.789 49.633C122.067 48.888 123.281 48.006 123.281 48.006Z" fill="#F1B99E"/>
</g>
</g>
</g>
<g id="Group_43">
<path id="Vector_47" d="M128.75 55.84L135.495 37.425L157.24 37.779L150.811 54.751L128.75 55.84Z" fill="#D3D3D3"/>
</g>
<g id="Group_44">
<path id="Vector_48" d="M145.3 43.9894C144.389 43.5345 143.114 44.2415 142.451 45.5686C141.788 46.8957 141.988 48.3403 142.899 48.7952C143.81 49.25 145.085 48.543 145.748 47.2159C146.411 45.8888 146.21 44.4442 145.3 43.9894Z" fill="#0B4870"/>
</g>
<g id="Group_45">
<path id="Vector_49" d="M109.916 8.834C109.836 8.157 108.498 7.91101 108.391 8.92601C108.283 9.94001 108.998 11.72 109.506 11.545C110.014 11.37 110.027 9.768 109.916 8.834Z" fill="#EEA886"/>
</g>
</g>
<path id="Vector_50" d="M71.621 159.383C71.621 159.383 71.433 159.071 71.088 158.677C70.561 158.067 69.669 157.248 68.542 157.003C68.542 157.003 64.309 161.72 62.46 163.307C62.297 163.44 62.117 163.59 61.936 163.733C61.936 163.733 61.893 163.773 61.813 163.841C60.308 165.014 58.246 166.377 56.645 168.02C54.262 163.625 50.108 154.415 46.373 152.5L46.365 152.496C45.427 152.017 44.522 151.994 43.672 152.627C43.672 152.627 39.499 156.867 44.333 164.397C46.022 167.022 47.999 169.081 49.856 170.639C51.944 172.393 53.877 173.524 55.096 174.149H55.095C55.095 174.149 56.917 175.371 58.344 174.969C59.769 174.566 60.958 173.033 60.958 173.033H60.957C64.429 169.541 71.621 159.383 71.621 159.383Z" fill="#FCD2B1"/>
<g id="Group_46">
<g id="Group_47">
<path id="Vector_51" d="M72.053 153.345C72.053 153.345 75.158 149.941 75.545 149.904C75.934 149.866 76.102 150.061 75.823 150.391C75.545 150.723 72.912 153.776 72.912 153.776C72.912 153.776 77.232 150.42 77.544 150.315C77.726 150.253 78.068 150.609 77.934 150.802C77.802 150.993 73.702 154.584 73.702 154.584C73.702 154.584 77.742 151.46 78.028 151.454C78.278 151.45 78.516 151.86 78.231 152.114C77.947 152.368 74.355 155.498 74.355 155.498C74.355 155.498 77.434 153.425 77.68 153.573C77.83 153.663 78.139 153.956 77.328 154.466C76.518 154.973 74.728 156.389 74.728 156.389L72.053 153.345Z" fill="#F1B99E"/>
</g>
<g id="Group_48">
<g id="Group_49">
<path id="Vector_52" d="M69.068 157.864C69.068 157.864 70.022 156.675 69.668 155.845C69.366 155.141 69.449 154.008 69.476 153.659C69.508 153.193 69.11 151.711 69.661 151.761C70.214 151.812 70.428 154.174 70.565 154.662C70.702 155.149 71.868 153.281 72.335 153.125C72.803 152.967 75.627 155.267 74.687 156.446C73.747 157.627 72.001 158.209 71.876 158.453C71.75 158.695 71.224 159.34 71.224 159.34L69.068 157.864Z" fill="#F1B99E"/>
</g>
</g>
</g>
<g id="Group_50">
<g id="Group_51">
<path id="Vector_53" d="M270.686 152.41C270.686 152.41 266.659 150.172 266.281 150.261C265.899 150.348 265.803 150.586 266.173 150.811C266.542 151.038 270.009 153.093 270.009 153.093C270.009 153.093 264.845 151.286 264.517 151.285C264.326 151.286 264.113 151.731 264.302 151.872C264.49 152.012 269.519 154.109 269.519 154.109C269.519 154.109 264.695 152.435 264.421 152.519C264.184 152.595 264.088 153.06 264.44 153.21C264.79 153.359 269.191 155.184 269.191 155.184C269.191 155.184 265.613 154.199 265.426 154.418C265.312 154.551 265.113 154.927 266.043 155.151C266.972 155.375 269.12 156.146 269.12 156.146L270.686 152.41Z" fill="#EEBEA7"/>
</g>
<g id="Group_52">
<g id="Group_53">
<path id="Vector_54" d="M274.953 155.745C274.953 155.745 273.671 154.92 273.744 154.022C273.805 153.258 273.366 152.211 273.229 151.889C273.05 151.456 272.957 149.925 272.451 150.148C271.943 150.372 272.492 152.679 272.516 153.185C272.54 153.692 270.841 152.291 270.349 152.292C269.855 152.291 267.911 155.369 269.177 156.188C270.445 157.008 272.284 157.004 272.48 157.197C272.676 157.385 273.38 157.829 273.38 157.829L274.953 155.745Z" fill="#EEBEA7"/>
</g>
</g>
</g>
<g id="Group_54">
<path id="Vector_55" d="M276.537 251.116C276.537 251.116 273.54 255.152 273.95 255.791C274.361 256.431 277.513 256.521 279.434 255.791C281.352 255.061 281.397 250.33 282.264 248.299C282.628 247.447 281.85 244.938 280.756 244.754C279.664 244.572 278.475 245.108 278.475 245.108C278.475 245.108 279.61 247.97 276.537 251.116Z" fill="#0E538C"/>
</g>
<g id="Group_55">
<g id="Group_56">
<path id="Vector_56" d="M278.454 245.074C278.454 245.074 277.824 246.793 277.594 248.433C277.404 249.794 275.458 252.683 275.55 253.049C275.641 253.414 278.108 253.745 279.113 252.804C280.118 251.862 280.765 249.121 280.985 247.482C281.193 245.955 281.453 245.201 281.453 245.201C281.453 245.201 279.415 244.07 278.454 245.074Z" fill="#EEBEA7"/>
</g>
</g>
<g id="Group_57">
<path id="Vector_57" d="M302.63 251.183C302.63 251.183 299.739 255.153 300.151 255.791C300.564 256.431 303.714 256.521 305.632 255.791C307.552 255.061 307.599 250.33 308.466 248.299C308.829 247.447 308.051 244.938 306.958 244.754C305.865 244.572 304.583 245.146 304.583 245.146C304.583 245.146 305.701 248.035 302.63 251.183Z" fill="#0E538C"/>
</g>
<g id="Group_58">
<g id="Group_59">
<path id="Vector_58" d="M304.583 245.146C304.583 245.146 304.354 247.018 303.987 248.345C303.622 249.669 301.659 252.684 301.749 253.05C301.841 253.415 304.308 253.746 305.313 252.805C306.317 251.863 307.094 249.135 307.186 247.483C307.278 245.832 306.957 244.754 306.957 244.754C306.957 244.754 305.542 244.141 304.583 245.146Z" fill="#EEBEA7"/>
</g>
</g>
<g id="Group_60">
<path id="Vector_59" d="M282.345 247.943V252.168H281.798V248.902L282.345 247.943Z" fill="#0E538C"/>
</g>
<g id="Group_61">
<path id="Vector_60" d="M308.546 247.943V252.168H307.997V248.902L308.546 247.943Z" fill="#0E538C"/>
</g>
<path id="Vector_61" d="M307.889 137.265C306.485 136.232 304.283 136.841 302.97 138.625C301.656 140.409 301.729 142.692 303.132 143.725C304.536 144.758 306.738 144.15 308.051 142.366C309.365 140.582 309.292 138.298 307.889 137.265Z" fill="#0B4870"/>
<g id="Group_62">
<g id="Group_63">
<path id="Vector_62" d="M290.142 179.445C290.142 179.445 287.572 191.413 286.981 194.425C286.39 197.437 284.736 212.029 284.558 214.511C284.38 216.99 281.872 226.341 281.992 227.228C282.11 228.113 278.276 245.914 278.276 245.914C278.276 245.914 279.584 246.97 280.966 246.01C281.675 245.517 289.379 229.345 289.379 224.914C289.379 218.79 293.908 210.796 294.493 209.425C299.92 196.696 298.852 192.803 299.561 191.977C300.27 191.151 300.331 192.489 300.745 194.32C301.159 196.151 302.044 211.983 302.575 213.993C303.106 216.001 302.694 222.794 302.989 226.222C303.284 229.647 304.583 245.146 304.583 245.146C304.583 245.146 305.588 246.72 306.995 245.188C307.299 244.857 309.431 227.921 309.489 223.846C309.548 219.77 309.61 214.148 309.723 212.385C310.819 195.492 313.508 193.08 309.272 181.124C301.339 158.741 290.142 179.445 290.142 179.445Z" fill="#EEBEA7"/>
</g>
</g>
<g id="Group_64">
<path id="Vector_63" d="M307.417 176.103C307.417 176.103 314.746 186.358 311.59 208.175C311.59 208.175 294.21 210.54 284.896 205.441C284.896 205.441 288.748 182.947 290.142 179.446C291.537 175.944 307.417 176.103 307.417 176.103Z" fill="#2A94F4"/>
</g>
<g id="Group_65">
<path id="Vector_64" d="M297.581 146.957C297.581 146.957 294.413 148.277 293.477 148.465C292.539 148.653 289.37 153.332 288.733 155.056C288.094 156.782 288.733 159.368 290.045 162.406C291.358 165.444 290.12 166.457 290.72 169.494C291.32 172.532 289.383 179.007 289.271 180.695C289.16 182.383 306.901 182.656 310.386 179.581C310.386 179.581 306.882 174.331 306.431 173.581C305.983 172.831 306.357 168.743 306.769 167.694C307.182 166.644 309.928 157.715 309.928 157.715C309.928 157.715 312.173 150.858 310.146 149.281C308.382 147.912 303.58 147.426 302.717 147.125C301.853 146.825 299.345 146.695 297.581 146.957Z" fill="#0B4870"/>
</g>
<g id="Group_66">
<path id="Vector_65" d="M296.294 143.842C296.294 143.842 296.367 144.518 296.454 145.454C296.493 145.868 296.535 146.336 296.573 146.813C296.682 148.179 296.771 149.654 296.719 150.406C296.719 150.406 299.526 153.218 302.716 147.125C302.716 147.125 301.373 144.613 302.384 141.191C303.395 137.769 296.294 143.842 296.294 143.842Z" fill="#EEBEA7"/>
</g>
<g id="Group_67">
<g id="Group_68">
<g id="Group_69">
<path id="Vector_66" d="M299.965 128.238C299.965 128.238 293.375 128.011 292.987 139.385C292.602 150.758 304.73 142.188 306.079 135.65C307.431 129.115 299.965 128.238 299.965 128.238Z" fill="#EEBEA7"/>
</g>
</g>
</g>
<g id="Group_70">
<g id="Group_71">
<g id="Group_72">
<path id="Vector_67" d="M294.541 133.042C294.541 133.042 296.47 136.974 301.276 139.074C301.276 139.074 302.389 141.966 302.229 142.889C302.229 142.889 310.426 136.084 305.445 130.532C300.168 124.647 293.206 130.49 294.541 133.042Z" fill="#0B4870"/>
</g>
</g>
</g>
<g id="Group_73">
<g id="Group_74">
<g id="Group_75">
<path id="Vector_68" d="M301.337 139.028C301.636 138.299 302.693 136.763 303.633 137.629C304.573 138.493 302.181 141.533 301.521 141.062C301.521 141.062 300.624 140.761 301.337 139.028Z" fill="#EEBEA7"/>
</g>
</g>
</g>
<path id="Vector_69" d="M296.454 145.454C296.493 145.868 296.535 146.336 296.573 146.813C300.212 145.02 300.766 142.429 300.784 142.349C298.193 145.697 296.454 145.454 296.454 145.454Z" fill="#A77860"/>
<path id="Vector_70" d="M303.18 147.24C303.18 147.24 299.657 152.979 296.861 152.91C294.066 152.844 295.973 147.603 295.973 147.603C295.973 147.603 298.118 145.889 303.18 147.24Z" fill="#EEBEA7"/>
<g id="Group_76">
<path id="Vector_71" d="M287.264 163.882C286.223 163.971 282.899 162.122 279.696 160.741C276.913 159.543 273.927 158.687 272.603 158.201C272.465 158.153 272.399 157.991 272.386 157.766C272.344 156.927 273.194 154.27 273.854 154.448C274.579 154.641 275.323 154.847 276.069 155.056C277.627 155.494 279.198 155.947 280.658 156.362C280.833 156.412 281.005 156.459 281.173 156.508C282.661 156.93 284.012 157.302 285.092 157.565C286.244 157.847 287.079 158 287.429 157.95C288.202 157.835 293.416 155.492 296.976 153.843C297.069 153.797 297.164 153.756 297.257 153.708C298.913 152.941 300.152 152.348 300.308 152.247C300.801 151.935 307.047 148.115 309.013 148.658C312.492 149.62 310.138 156.245 310.138 156.245C310.34 158.43 309.616 156.672 309.013 157.114C308.375 157.582 307.115 157.753 304.669 158.8C303.163 159.446 301.859 159.844 300.926 160.209C298.499 161.16 289.207 163.718 287.264 163.882Z" fill="#0E538C"/>
</g>
</g>
</g>
</g>
<defs>
<linearGradient id="paint0_linear" x1="42.498" y1="60.624" x2="42.498" y2="121.673" gradientUnits="userSpaceOnUse">
<stop stop-color="#2563FF"/>
<stop offset="1" stop-color="#FF25A8"/>
</linearGradient>
<linearGradient id="paint1_linear" x1="140.648" y1="55.605" x2="140.648" y2="204.87" gradientUnits="userSpaceOnUse">
<stop stop-color="#2A94F4"/>
<stop offset="1" stop-color="#2AF4DC"/>
</linearGradient>
<linearGradient id="paint2_linear" x1="255.788" y1="70.0822" x2="255.788" y2="157.111" gradientUnits="userSpaceOnUse">
<stop stop-color="#2563FF"/>
<stop offset="1" stop-color="#9225FF"/>
</linearGradient>
<linearGradient id="paint3_linear" x1="214.223" y1="34.375" x2="214.223" y2="82.9" gradientUnits="userSpaceOnUse">
<stop stop-color="#8C0E7F"/>
<stop offset="1" stop-color="#4D0E8C"/>
</linearGradient>
</defs>
</svg>
