<svg width="813" height="1024" viewBox="0 0 813 1024" fill="none" xmlns="http://www.w3.org/2000/svg">
<path d="M518.403 924.098C556.029 951.737 669.397 1010.41 821.866 1024L823 0L721.656 56.0795C637.306 102.755 539.126 117.973 444.604 99.0215C336.473 77.3419 225.631 120.715 160.93 210.024L145.173 231.774L23.6591 391.795C-30.3011 462.854 15.5146 565.485 104.443 572.757L401.388 597.039C468.091 602.493 511.127 670.154 487.791 732.879L467.066 788.587C461.254 804.208 458.278 820.741 458.278 837.409C458.278 869.151 475.057 898.53 502.398 914.657L518.403 924.098Z" fill="url(#paint0_linear)"/>
<defs>
<linearGradient id="paint0_linear" x1="361" y1="1024" x2="361" y2="0" gradientUnits="userSpaceOnUse">
<stop offset="0.132529" stop-color="#FE6E5B"/>
<stop offset="1" stop-color="#F9C747"/>
</linearGradient>
</defs>
</svg>
