<svg width="717" height="1024" viewBox="0 0 717 1024" fill="none" xmlns="http://www.w3.org/2000/svg">
<path d="M256.5 100C223.333 72.3333 123.4 13.6 -11 0L-12 1025L78.6675 968.028C151.557 922.227 239.648 907.234 323.586 926.344C416.204 947.431 512.087 908.07 563.177 827.991L585.5 793L696.989 626.281C744.599 555.085 698.785 458.869 613.504 450.95L376.997 428.989C308.117 422.593 263.017 353.876 284.555 288.138L301.919 235.139C306.941 219.81 309.5 203.781 309.5 187.65C309.5 155.06 293.249 124.615 266.171 106.478L256.5 100Z" fill="url(#paint0_linear)"/>
<defs>
<linearGradient id="paint0_linear" x1="395.25" y1="0" x2="395.25" y2="1025" gradientUnits="userSpaceOnUse">
<stop stop-color="#6978FF"/>
<stop offset="1" stop-color="#69F6FF"/>
</linearGradient>
</defs>
</svg>
